G75*
G70*
%OFA0B0*%
%FSLAX24Y24*%
%IPPOS*%
%LPD*%
%AMOC8*
5,1,8,0,0,1.08239X$1,22.5*
%
%ADD10C,0.0100*%
%ADD11C,0.0030*%
%ADD12C,0.0060*%
%ADD13C,0.0040*%
%ADD14C,0.0020*%
D10*
X002063Y000463D02*
X002313Y000213D01*
X033688Y000213D01*
X033938Y000463D01*
X033938Y016400D01*
X002063Y016400D01*
X002063Y000463D01*
X017500Y013275D02*
X018500Y013275D01*
D11*
X019323Y011635D02*
X019428Y011635D01*
X019463Y011600D01*
X019463Y011530D01*
X019428Y011495D01*
X019323Y011495D01*
X019323Y011425D02*
X019323Y011635D01*
X019393Y011495D02*
X019463Y011425D01*
X019544Y011425D02*
X019684Y011425D01*
X019614Y011425D02*
X019614Y011635D01*
X019544Y011565D01*
X020323Y011495D02*
X020428Y011495D01*
X020463Y011530D01*
X020463Y011600D01*
X020428Y011635D01*
X020323Y011635D01*
X020323Y011425D01*
X020393Y011495D02*
X020463Y011425D01*
X020544Y011425D02*
X020684Y011565D01*
X020684Y011600D01*
X020649Y011635D01*
X020579Y011635D01*
X020544Y011600D01*
X020544Y011425D02*
X020684Y011425D01*
X021323Y011425D02*
X021323Y011635D01*
X021428Y011635D01*
X021463Y011600D01*
X021463Y011530D01*
X021428Y011495D01*
X021323Y011495D01*
X021393Y011495D02*
X021463Y011425D01*
X021544Y011530D02*
X021684Y011530D01*
X021649Y011425D02*
X021649Y011635D01*
X021544Y011530D01*
X022323Y011495D02*
X022428Y011495D01*
X022463Y011530D01*
X022463Y011600D01*
X022428Y011635D01*
X022323Y011635D01*
X022323Y011425D01*
X022393Y011495D02*
X022463Y011425D01*
X022544Y011425D02*
X022544Y011460D01*
X022684Y011600D01*
X022684Y011635D01*
X022544Y011635D01*
X023323Y011635D02*
X023323Y011425D01*
X023323Y011495D02*
X023428Y011495D01*
X023463Y011530D01*
X023463Y011600D01*
X023428Y011635D01*
X023323Y011635D01*
X023393Y011495D02*
X023463Y011425D01*
X023544Y011460D02*
X023544Y011495D01*
X023579Y011530D01*
X023649Y011530D01*
X023684Y011495D01*
X023684Y011460D01*
X023649Y011425D01*
X023579Y011425D01*
X023544Y011460D01*
X023579Y011530D02*
X023544Y011565D01*
X023544Y011600D01*
X023579Y011635D01*
X023649Y011635D01*
X023684Y011600D01*
X023684Y011565D01*
X023649Y011530D01*
X024323Y011495D02*
X024428Y011495D01*
X024463Y011530D01*
X024463Y011600D01*
X024428Y011635D01*
X024323Y011635D01*
X024323Y011425D01*
X024393Y011495D02*
X024463Y011425D01*
X024544Y011460D02*
X024579Y011425D01*
X024649Y011425D01*
X024684Y011460D01*
X024684Y011495D01*
X024649Y011530D01*
X024544Y011530D01*
X024544Y011460D01*
X024544Y011530D02*
X024614Y011600D01*
X024684Y011635D01*
X025323Y011635D02*
X025323Y011425D01*
X025323Y011495D02*
X025428Y011495D01*
X025463Y011530D01*
X025463Y011600D01*
X025428Y011635D01*
X025323Y011635D01*
X025393Y011495D02*
X025463Y011425D01*
X025544Y011460D02*
X025579Y011425D01*
X025649Y011425D01*
X025684Y011460D01*
X025684Y011530D01*
X025649Y011565D01*
X025614Y011565D01*
X025544Y011530D01*
X025544Y011635D01*
X025684Y011635D01*
X026323Y011635D02*
X026323Y011425D01*
X026323Y011495D02*
X026428Y011495D01*
X026463Y011530D01*
X026463Y011600D01*
X026428Y011635D01*
X026323Y011635D01*
X026393Y011495D02*
X026463Y011425D01*
X026544Y011460D02*
X026579Y011425D01*
X026649Y011425D01*
X026684Y011460D01*
X026684Y011495D01*
X026649Y011530D01*
X026614Y011530D01*
X026649Y011530D02*
X026684Y011565D01*
X026684Y011600D01*
X026649Y011635D01*
X026579Y011635D01*
X026544Y011600D01*
X027858Y010260D02*
X027823Y010225D01*
X027823Y010085D01*
X027858Y010050D01*
X027928Y010050D01*
X027963Y010085D01*
X028044Y010085D02*
X028079Y010050D01*
X028149Y010050D01*
X028184Y010085D01*
X028184Y010120D01*
X028149Y010155D01*
X028044Y010155D01*
X028044Y010085D01*
X028044Y010155D02*
X028114Y010225D01*
X028184Y010260D01*
X027963Y010225D02*
X027928Y010260D01*
X027858Y010260D01*
X022149Y007510D02*
X022149Y007300D01*
X022184Y007405D02*
X022044Y007405D01*
X022149Y007510D01*
X021963Y007475D02*
X021928Y007510D01*
X021858Y007510D01*
X021823Y007475D01*
X021823Y007335D01*
X021858Y007300D01*
X021928Y007300D01*
X021963Y007335D01*
X018835Y004710D02*
X018835Y003900D01*
X018895Y003915D02*
X018895Y003985D01*
X018895Y003950D02*
X019105Y003950D01*
X019105Y003915D02*
X019105Y003985D01*
X019070Y004062D02*
X019105Y004097D01*
X019105Y004167D01*
X019070Y004202D01*
X018930Y004202D01*
X018895Y004167D01*
X018895Y004097D01*
X018930Y004062D01*
X019070Y004062D01*
X019105Y004283D02*
X018895Y004283D01*
X018895Y004388D01*
X018930Y004423D01*
X019000Y004423D01*
X019035Y004388D01*
X019035Y004283D01*
X019035Y004353D02*
X019105Y004423D01*
X019070Y004504D02*
X019105Y004539D01*
X019105Y004609D01*
X019070Y004644D01*
X018930Y004644D01*
X018895Y004609D01*
X018895Y004539D01*
X018930Y004504D01*
X019070Y004504D01*
X019035Y004574D02*
X019105Y004644D01*
X019835Y004342D02*
X019835Y003900D01*
X019895Y003915D02*
X019895Y004020D01*
X019930Y004055D01*
X020000Y004055D01*
X020035Y004020D01*
X020035Y003915D01*
X020105Y003915D02*
X019895Y003915D01*
X020035Y003985D02*
X020105Y004055D01*
X020105Y004136D02*
X020105Y004241D01*
X020070Y004276D01*
X019930Y004276D01*
X019895Y004241D01*
X019895Y004136D01*
X020105Y004136D01*
X020835Y004342D02*
X020835Y003900D01*
X020895Y003915D02*
X021105Y003915D01*
X021035Y003985D01*
X021105Y004055D01*
X020895Y004055D01*
X020895Y004136D02*
X020895Y004241D01*
X020930Y004276D01*
X021000Y004276D01*
X021035Y004241D01*
X021035Y004136D01*
X021105Y004136D02*
X020895Y004136D01*
X021035Y004206D02*
X021105Y004276D01*
X025835Y004342D02*
X025835Y003900D01*
X025895Y003915D02*
X025965Y003985D01*
X025895Y004055D01*
X026105Y004055D01*
X026105Y004136D02*
X026105Y004276D01*
X026105Y004206D02*
X025895Y004206D01*
X025965Y004136D01*
X025895Y003915D02*
X026105Y003915D01*
X029895Y003915D02*
X030035Y003915D01*
X030105Y003985D01*
X030035Y004055D01*
X029895Y004055D01*
X029930Y004136D02*
X030070Y004136D01*
X030105Y004171D01*
X030105Y004241D01*
X030070Y004276D01*
X030070Y004357D02*
X030105Y004392D01*
X030105Y004462D01*
X030070Y004497D01*
X030070Y004357D02*
X029930Y004357D01*
X029895Y004392D01*
X029895Y004462D01*
X029930Y004497D01*
X029930Y004276D02*
X029895Y004241D01*
X029895Y004171D01*
X029930Y004136D01*
X031895Y004136D02*
X032105Y004276D01*
X031895Y004276D01*
X031895Y004357D02*
X031895Y004462D01*
X031930Y004497D01*
X032070Y004497D01*
X032105Y004462D01*
X032105Y004357D01*
X031895Y004357D01*
X031895Y004136D02*
X032105Y004136D01*
X032070Y004055D02*
X032000Y004055D01*
X032000Y003985D01*
X032070Y003915D02*
X032105Y003950D01*
X032105Y004020D01*
X032070Y004055D01*
X032070Y003915D02*
X031930Y003915D01*
X031895Y003950D01*
X031895Y004020D01*
X031930Y004055D01*
X032684Y004055D02*
X032684Y003915D01*
X032684Y004020D02*
X032824Y004020D01*
X032824Y004055D02*
X032824Y003915D01*
X032905Y003950D02*
X032940Y003915D01*
X033010Y003915D01*
X033045Y003950D01*
X033045Y003985D01*
X033010Y004020D01*
X032975Y004020D01*
X033010Y004020D02*
X033045Y004055D01*
X033045Y004090D01*
X033010Y004125D01*
X032940Y004125D01*
X032905Y004090D01*
X032824Y004055D02*
X032754Y004125D01*
X032684Y004055D01*
X033125Y004055D02*
X033196Y004125D01*
X033196Y003915D01*
X033266Y003915D02*
X033125Y003915D01*
X028184Y006835D02*
X028149Y006800D01*
X028079Y006800D01*
X028044Y006835D01*
X028044Y006905D02*
X028114Y006940D01*
X028149Y006940D01*
X028184Y006905D01*
X028184Y006835D01*
X028044Y006905D02*
X028044Y007010D01*
X028184Y007010D01*
X027963Y006975D02*
X027928Y007010D01*
X027858Y007010D01*
X027823Y006975D01*
X027823Y006835D01*
X027858Y006800D01*
X027928Y006800D01*
X027963Y006835D01*
X016184Y007335D02*
X016149Y007300D01*
X016079Y007300D01*
X016044Y007335D01*
X015963Y007335D02*
X015928Y007300D01*
X015858Y007300D01*
X015823Y007335D01*
X015823Y007475D01*
X015858Y007510D01*
X015928Y007510D01*
X015963Y007475D01*
X016044Y007475D02*
X016079Y007510D01*
X016149Y007510D01*
X016184Y007475D01*
X016184Y007440D01*
X016149Y007405D01*
X016184Y007370D01*
X016184Y007335D01*
X016149Y007405D02*
X016114Y007405D01*
X014105Y004241D02*
X013895Y004241D01*
X014000Y004136D01*
X014000Y004276D01*
X014070Y004055D02*
X013930Y004055D01*
X013895Y004020D01*
X013895Y003915D01*
X014105Y003915D01*
X014105Y004020D01*
X014070Y004055D01*
X013105Y004020D02*
X013105Y003915D01*
X012895Y003915D01*
X012895Y004020D01*
X012930Y004055D01*
X013070Y004055D01*
X013105Y004020D01*
X013070Y004136D02*
X013105Y004171D01*
X013105Y004241D01*
X013070Y004276D01*
X013035Y004276D01*
X013000Y004241D01*
X013000Y004206D01*
X013000Y004241D02*
X012965Y004276D01*
X012930Y004276D01*
X012895Y004241D01*
X012895Y004171D01*
X012930Y004136D01*
X012105Y004171D02*
X012070Y004136D01*
X012105Y004171D02*
X012105Y004241D01*
X012070Y004276D01*
X012000Y004276D01*
X011965Y004241D01*
X011965Y004206D01*
X012000Y004136D01*
X011895Y004136D01*
X011895Y004276D01*
X011930Y004055D02*
X011895Y004020D01*
X011895Y003915D01*
X012105Y003915D01*
X012105Y004020D01*
X012070Y004055D01*
X011930Y004055D01*
X011105Y004020D02*
X011105Y003915D01*
X010895Y003915D01*
X010895Y004020D01*
X010930Y004055D01*
X011070Y004055D01*
X011105Y004020D01*
X011070Y004136D02*
X011105Y004171D01*
X011105Y004241D01*
X011070Y004276D01*
X011035Y004276D01*
X011000Y004241D01*
X011000Y004136D01*
X011070Y004136D01*
X011000Y004136D02*
X010930Y004206D01*
X010895Y004276D01*
X010105Y004276D02*
X010105Y004136D01*
X009965Y004276D01*
X009930Y004276D01*
X009895Y004241D01*
X009895Y004171D01*
X009930Y004136D01*
X009930Y004055D02*
X009895Y004020D01*
X009895Y003915D01*
X010105Y003915D01*
X010105Y004020D01*
X010070Y004055D01*
X009930Y004055D01*
X009105Y004020D02*
X009105Y003915D01*
X008895Y003915D01*
X008895Y004020D01*
X008930Y004055D01*
X009070Y004055D01*
X009105Y004020D01*
X009105Y004136D02*
X009105Y004276D01*
X009105Y004206D02*
X008895Y004206D01*
X008965Y004136D01*
X008105Y004171D02*
X008070Y004136D01*
X007930Y004276D01*
X008070Y004276D01*
X008105Y004241D01*
X008105Y004171D01*
X008070Y004136D02*
X007930Y004136D01*
X007895Y004171D01*
X007895Y004241D01*
X007930Y004276D01*
X007930Y004055D02*
X007895Y004020D01*
X007895Y003915D01*
X008105Y003915D01*
X008105Y004020D01*
X008070Y004055D01*
X007930Y004055D01*
X005105Y004020D02*
X005105Y003915D01*
X004895Y003915D01*
X004895Y004020D01*
X004930Y004055D01*
X005070Y004055D01*
X005105Y004020D01*
X005105Y004136D02*
X005070Y004136D01*
X004930Y004276D01*
X004895Y004276D01*
X004895Y004136D01*
X003155Y003915D02*
X003015Y003915D01*
X003085Y003915D02*
X003085Y004125D01*
X003015Y004055D01*
X002934Y004055D02*
X002934Y003915D01*
X002934Y004020D02*
X002794Y004020D01*
X002794Y004055D02*
X002864Y004125D01*
X002934Y004055D01*
X002794Y004055D02*
X002794Y003915D01*
X002758Y006040D02*
X002688Y006040D01*
X002653Y006075D01*
X002653Y006215D01*
X002688Y006250D01*
X002758Y006250D01*
X002793Y006215D01*
X002873Y006250D02*
X003014Y006250D01*
X003014Y006215D01*
X002873Y006075D01*
X002873Y006040D01*
X002793Y006075D02*
X002758Y006040D01*
X003858Y007300D02*
X003928Y007300D01*
X003963Y007335D01*
X004044Y007300D02*
X004184Y007300D01*
X004114Y007300D02*
X004114Y007510D01*
X004044Y007440D01*
X003963Y007475D02*
X003928Y007510D01*
X003858Y007510D01*
X003823Y007475D01*
X003823Y007335D01*
X003858Y007300D01*
X009823Y007335D02*
X009858Y007300D01*
X009928Y007300D01*
X009963Y007335D01*
X010044Y007300D02*
X010184Y007440D01*
X010184Y007475D01*
X010149Y007510D01*
X010079Y007510D01*
X010044Y007475D01*
X009963Y007475D02*
X009928Y007510D01*
X009858Y007510D01*
X009823Y007475D01*
X009823Y007335D01*
X010044Y007300D02*
X010184Y007300D01*
X004763Y013190D02*
X004623Y013190D01*
X004623Y013400D01*
X004763Y013400D01*
X004693Y013295D02*
X004623Y013295D01*
X004542Y013225D02*
X004542Y013365D01*
X004507Y013400D01*
X004402Y013400D01*
X004402Y013190D01*
X004507Y013190D01*
X004542Y013225D01*
X004324Y013190D02*
X004254Y013190D01*
X004289Y013190D02*
X004289Y013400D01*
X004254Y013400D02*
X004324Y013400D01*
X004365Y013550D02*
X004365Y013690D01*
X004365Y013620D02*
X004435Y013690D01*
X004470Y013690D01*
X004284Y013655D02*
X004284Y013620D01*
X004144Y013620D01*
X004144Y013585D02*
X004144Y013655D01*
X004179Y013690D01*
X004249Y013690D01*
X004284Y013655D01*
X004249Y013550D02*
X004179Y013550D01*
X004144Y013585D01*
X004063Y013585D02*
X004063Y013690D01*
X004063Y013585D02*
X004028Y013550D01*
X003993Y013585D01*
X003958Y013550D01*
X003923Y013585D01*
X003923Y013690D01*
X003842Y013655D02*
X003807Y013690D01*
X003737Y013690D01*
X003702Y013655D01*
X003702Y013585D01*
X003737Y013550D01*
X003807Y013550D01*
X003842Y013585D01*
X003842Y013655D01*
X003621Y013655D02*
X003586Y013620D01*
X003481Y013620D01*
X003481Y013550D02*
X003481Y013760D01*
X003586Y013760D01*
X003621Y013725D01*
X003621Y013655D01*
X003663Y013330D02*
X003733Y013330D01*
X003768Y013295D01*
X003768Y013260D01*
X003628Y013260D01*
X003628Y013225D02*
X003628Y013295D01*
X003663Y013330D01*
X003628Y013225D02*
X003663Y013190D01*
X003733Y013190D01*
X003849Y013190D02*
X003849Y013330D01*
X003849Y013260D02*
X003919Y013330D01*
X003954Y013330D01*
X003547Y013330D02*
X003477Y013190D01*
X003407Y013330D01*
X003326Y013295D02*
X003291Y013330D01*
X003221Y013330D01*
X003186Y013295D01*
X003186Y013225D01*
X003221Y013190D01*
X003291Y013190D01*
X003326Y013225D01*
X003326Y013295D01*
X005557Y013550D02*
X005557Y013760D01*
X005557Y013655D02*
X005698Y013655D01*
X005698Y013760D02*
X005698Y013550D01*
X005778Y013550D02*
X005883Y013550D01*
X005918Y013585D01*
X005918Y013725D01*
X005883Y013760D01*
X005778Y013760D01*
X005778Y013550D01*
X005999Y013550D02*
X005999Y013760D01*
X006104Y013760D01*
X006139Y013725D01*
X006139Y013585D01*
X006104Y013550D01*
X005999Y013550D01*
X006441Y013550D02*
X006441Y013760D01*
X006546Y013760D01*
X006581Y013725D01*
X006581Y013655D01*
X006546Y013620D01*
X006441Y013620D01*
X006511Y013620D02*
X006581Y013550D01*
X006662Y013585D02*
X006662Y013655D01*
X006697Y013690D01*
X006767Y013690D01*
X006802Y013655D01*
X006802Y013620D01*
X006662Y013620D01*
X006662Y013585D02*
X006697Y013550D01*
X006767Y013550D01*
X006883Y013550D02*
X006988Y013550D01*
X007023Y013585D01*
X006988Y013620D01*
X006918Y013620D01*
X006883Y013655D01*
X006918Y013690D01*
X007023Y013690D01*
X007104Y013655D02*
X007139Y013690D01*
X007209Y013690D01*
X007244Y013655D01*
X007244Y013620D01*
X007104Y013620D01*
X007104Y013585D02*
X007104Y013655D01*
X007104Y013585D02*
X007139Y013550D01*
X007209Y013550D01*
X007360Y013585D02*
X007395Y013550D01*
X007360Y013585D02*
X007360Y013725D01*
X007325Y013690D02*
X007395Y013690D01*
X029131Y013760D02*
X029131Y013585D01*
X029166Y013550D01*
X029236Y013550D01*
X029271Y013585D01*
X029271Y013760D01*
X029352Y013655D02*
X029387Y013690D01*
X029492Y013690D01*
X029457Y013620D02*
X029387Y013620D01*
X029352Y013655D01*
X029352Y013550D02*
X029457Y013550D01*
X029492Y013585D01*
X029457Y013620D01*
X029573Y013620D02*
X029713Y013620D01*
X029713Y013655D01*
X029678Y013690D01*
X029608Y013690D01*
X029573Y013655D01*
X029573Y013585D01*
X029608Y013550D01*
X029678Y013550D01*
X030015Y013550D02*
X030015Y013760D01*
X030120Y013760D01*
X030155Y013725D01*
X030155Y013585D01*
X030120Y013550D01*
X030015Y013550D01*
X030236Y013585D02*
X030236Y013725D01*
X030271Y013760D01*
X030341Y013760D01*
X030376Y013725D01*
X030376Y013585D01*
X030341Y013550D01*
X030271Y013550D01*
X030236Y013585D01*
X030457Y013585D02*
X030492Y013550D01*
X030562Y013550D01*
X030597Y013585D01*
X030597Y013620D01*
X030562Y013655D01*
X030492Y013655D01*
X030457Y013690D01*
X030457Y013725D01*
X030492Y013760D01*
X030562Y013760D01*
X030597Y013725D01*
X030678Y013725D02*
X030713Y013760D01*
X030783Y013760D01*
X030818Y013725D01*
X030818Y013690D01*
X030748Y013620D01*
X030748Y013585D02*
X030748Y013550D01*
X030663Y013820D02*
X030000Y013820D01*
X029789Y015050D02*
X029684Y015050D01*
X029719Y015120D02*
X029684Y015155D01*
X029719Y015190D01*
X029824Y015190D01*
X029789Y015120D02*
X029719Y015120D01*
X029789Y015120D02*
X029824Y015085D01*
X029789Y015050D01*
X029603Y015120D02*
X029463Y015120D01*
X029463Y015085D02*
X029463Y015155D01*
X029498Y015190D01*
X029568Y015190D01*
X029603Y015155D01*
X029603Y015120D01*
X029568Y015050D02*
X029498Y015050D01*
X029463Y015085D01*
X029382Y015050D02*
X029277Y015050D01*
X029242Y015085D01*
X029242Y015190D01*
X029382Y015190D02*
X029382Y015015D01*
X029347Y014980D01*
X029312Y014980D01*
X030346Y015050D02*
X030346Y015190D01*
X030452Y015190D01*
X030487Y015155D01*
X030487Y015050D01*
X030567Y015085D02*
X030602Y015050D01*
X030673Y015050D01*
X030708Y015085D01*
X030708Y015155D01*
X030673Y015190D01*
X030602Y015190D01*
X030567Y015155D01*
X030567Y015085D01*
X032890Y014631D02*
X032890Y014525D01*
X033100Y014525D01*
X033100Y014631D01*
X033065Y014666D01*
X032925Y014666D01*
X032890Y014631D01*
X032890Y014445D02*
X032890Y014305D01*
X033100Y014305D01*
X033100Y014445D01*
X032995Y014375D02*
X032995Y014305D01*
X033100Y014224D02*
X033100Y014084D01*
X032890Y014084D01*
D12*
X032750Y013650D02*
X032500Y013400D01*
X032000Y013400D01*
X031750Y013650D01*
X031750Y015150D01*
X032000Y015400D01*
X032500Y015400D01*
X032750Y015150D01*
X032750Y013650D01*
X031500Y014150D02*
X031250Y013900D01*
X030750Y013900D01*
X030500Y014150D01*
X030250Y013900D01*
X029750Y013900D01*
X029500Y014150D01*
X029250Y013900D01*
X028750Y013900D01*
X028500Y014150D01*
X028500Y014650D01*
X028750Y014900D01*
X029250Y014900D01*
X029500Y014650D01*
X029750Y014900D01*
X030250Y014900D01*
X030500Y014650D01*
X030750Y014900D01*
X031250Y014900D01*
X031500Y014650D01*
X031500Y014150D01*
X030500Y014150D02*
X030500Y014650D01*
X029500Y014650D02*
X029500Y014150D01*
X028000Y013650D02*
X027750Y013400D01*
X027250Y013400D01*
X027000Y013650D01*
X027000Y015150D01*
X027250Y015400D01*
X027750Y015400D01*
X028000Y015150D01*
X028000Y013650D01*
X027000Y013650D02*
X026750Y013400D01*
X026250Y013400D01*
X026000Y013650D01*
X026000Y015150D01*
X026250Y015400D01*
X026750Y015400D01*
X027000Y015150D01*
X026000Y015150D02*
X025750Y015400D01*
X025250Y015400D01*
X025000Y015150D01*
X025000Y013650D01*
X024750Y013400D01*
X024250Y013400D01*
X024000Y013650D01*
X024000Y015150D01*
X024250Y015400D01*
X024750Y015400D01*
X025000Y015150D01*
X024000Y015150D02*
X023750Y015400D01*
X023250Y015400D01*
X023000Y015150D01*
X023000Y013650D01*
X022750Y013400D01*
X022250Y013400D01*
X022000Y013650D01*
X022000Y015150D01*
X022250Y015400D01*
X022750Y015400D01*
X023000Y015150D01*
X022000Y015150D02*
X021750Y015400D01*
X021250Y015400D01*
X021000Y015150D01*
X021000Y013650D01*
X020750Y013400D01*
X020250Y013400D01*
X020000Y013650D01*
X020000Y015150D01*
X020250Y015400D01*
X020750Y015400D01*
X021000Y015150D01*
X020000Y015150D02*
X019750Y015400D01*
X019250Y015400D01*
X019000Y015150D01*
X019000Y013650D01*
X018750Y013400D01*
X018250Y013400D01*
X018000Y013650D01*
X018000Y015150D01*
X018250Y015400D01*
X018750Y015400D01*
X019000Y015150D01*
X018000Y015150D02*
X017750Y015400D01*
X017250Y015400D01*
X017000Y015150D01*
X017000Y013650D01*
X016750Y013400D01*
X016250Y013400D01*
X016000Y013650D01*
X016000Y015150D01*
X016250Y015400D01*
X016750Y015400D01*
X017000Y015150D01*
X016000Y015150D02*
X015750Y015400D01*
X015250Y015400D01*
X015000Y015150D01*
X015000Y013650D01*
X014750Y013400D01*
X014250Y013400D01*
X014000Y013650D01*
X014000Y015150D01*
X014250Y015400D01*
X014750Y015400D01*
X015000Y015150D01*
X014000Y015150D02*
X013750Y015400D01*
X013250Y015400D01*
X013000Y015150D01*
X013000Y013650D01*
X013250Y013400D01*
X013750Y013400D01*
X014000Y013650D01*
X013000Y013650D02*
X012750Y013400D01*
X012250Y013400D01*
X012000Y013650D01*
X012000Y015150D01*
X012250Y015400D01*
X012750Y015400D01*
X013000Y015150D01*
X012000Y015150D02*
X011750Y015400D01*
X011250Y015400D01*
X011000Y015150D01*
X011000Y013650D01*
X011250Y013400D01*
X011750Y013400D01*
X012000Y013650D01*
X011000Y013650D02*
X010750Y013400D01*
X010250Y013400D01*
X010000Y013650D01*
X010000Y015150D01*
X010250Y015400D01*
X010750Y015400D01*
X011000Y015150D01*
X010000Y015150D02*
X009750Y015400D01*
X009250Y015400D01*
X009000Y015150D01*
X009000Y013650D01*
X009250Y013400D01*
X009750Y013400D01*
X010000Y013650D01*
X009000Y013650D02*
X008750Y013400D01*
X008250Y013400D01*
X008000Y013650D01*
X008000Y015150D01*
X008250Y015400D01*
X008750Y015400D01*
X009000Y015150D01*
X007500Y014650D02*
X007500Y014150D01*
X007250Y013900D01*
X005750Y013900D01*
X005500Y014150D01*
X005500Y014650D01*
X005750Y014900D01*
X007250Y014900D01*
X007500Y014650D01*
X005000Y014650D02*
X005000Y014150D01*
X004750Y013900D01*
X003250Y013900D01*
X003000Y014150D01*
X003000Y014650D01*
X003250Y014900D01*
X004750Y014900D01*
X005000Y014650D01*
X012075Y012745D02*
X012075Y012305D01*
X012368Y012305D02*
X012368Y012745D01*
X012535Y012525D02*
X012608Y012599D01*
X012755Y012599D01*
X012829Y012525D01*
X012829Y012452D01*
X012535Y012452D01*
X012535Y012525D02*
X012535Y012378D01*
X012608Y012305D01*
X012755Y012305D01*
X012995Y012305D02*
X012995Y012599D01*
X013069Y012599D01*
X013142Y012525D01*
X013216Y012599D01*
X013289Y012525D01*
X013289Y012305D01*
X013142Y012305D02*
X013142Y012525D01*
X013456Y012525D02*
X013529Y012599D01*
X013676Y012599D01*
X013749Y012525D01*
X013749Y012378D01*
X013676Y012305D01*
X013529Y012305D01*
X013456Y012378D01*
X013456Y012525D01*
X013916Y012305D02*
X014063Y012305D01*
X013990Y012305D02*
X013990Y012745D01*
X014063Y012745D02*
X013916Y012745D01*
X014223Y012745D02*
X014443Y012745D01*
X014517Y012672D01*
X014517Y012378D01*
X014443Y012305D01*
X014223Y012305D01*
X014223Y012745D01*
X014683Y012745D02*
X014683Y012305D01*
X014977Y012305D01*
X014830Y012525D02*
X014683Y012525D01*
X014683Y012745D02*
X014977Y012745D01*
X015604Y012672D02*
X015604Y012599D01*
X015678Y012525D01*
X015824Y012525D01*
X015898Y012452D01*
X015898Y012378D01*
X015824Y012305D01*
X015678Y012305D01*
X015604Y012378D01*
X015604Y012672D02*
X015678Y012745D01*
X015824Y012745D01*
X015898Y012672D01*
X016065Y012745D02*
X016211Y012599D01*
X016358Y012745D01*
X016358Y012305D01*
X016525Y012305D02*
X016745Y012305D01*
X016819Y012378D01*
X016819Y012672D01*
X016745Y012745D01*
X016525Y012745D01*
X016525Y012305D01*
X016065Y012305D02*
X016065Y012745D01*
X015750Y013400D02*
X015250Y013400D01*
X015000Y013650D01*
X015750Y013400D02*
X016000Y013650D01*
X017000Y013650D02*
X017250Y013400D01*
X017750Y013400D01*
X018000Y013650D01*
X019000Y013650D02*
X019250Y013400D01*
X019750Y013400D01*
X020000Y013650D01*
X021000Y013650D02*
X021250Y013400D01*
X021750Y013400D01*
X022000Y013650D01*
X023000Y013650D02*
X023250Y013400D01*
X023750Y013400D01*
X024000Y013650D01*
X025000Y013650D02*
X025250Y013400D01*
X025750Y013400D01*
X026000Y013650D01*
X028500Y012145D02*
X028500Y011725D01*
X028500Y011325D01*
X028500Y010905D01*
X028502Y010882D01*
X028507Y010859D01*
X028516Y010837D01*
X028529Y010817D01*
X028544Y010799D01*
X028562Y010784D01*
X028582Y010771D01*
X028604Y010762D01*
X028627Y010757D01*
X028650Y010755D01*
X028500Y011325D02*
X028527Y011327D01*
X028554Y011332D01*
X028580Y011342D01*
X028604Y011354D01*
X028626Y011370D01*
X028646Y011388D01*
X028663Y011410D01*
X028678Y011433D01*
X028688Y011458D01*
X028696Y011484D01*
X028700Y011511D01*
X028700Y011539D01*
X028696Y011566D01*
X028688Y011592D01*
X028678Y011617D01*
X028663Y011640D01*
X028646Y011662D01*
X028626Y011680D01*
X028604Y011696D01*
X028580Y011708D01*
X028554Y011718D01*
X028527Y011723D01*
X028500Y011725D01*
X028500Y012145D02*
X028502Y012168D01*
X028507Y012191D01*
X028516Y012213D01*
X028529Y012233D01*
X028544Y012251D01*
X028562Y012266D01*
X028582Y012279D01*
X028604Y012288D01*
X028627Y012293D01*
X028650Y012295D01*
X032350Y012295D02*
X032373Y012293D01*
X032396Y012288D01*
X032418Y012279D01*
X032438Y012266D01*
X032456Y012251D01*
X032471Y012233D01*
X032484Y012213D01*
X032493Y012191D01*
X032498Y012168D01*
X032500Y012145D01*
X032500Y010905D01*
X032498Y010882D01*
X032493Y010859D01*
X032484Y010837D01*
X032471Y010817D01*
X032456Y010799D01*
X032438Y010784D01*
X032418Y010771D01*
X032396Y010762D01*
X032373Y010757D01*
X032350Y010755D01*
X027560Y009720D02*
X027560Y007080D01*
X027558Y007057D01*
X027553Y007034D01*
X027544Y007012D01*
X027531Y006992D01*
X027516Y006974D01*
X027498Y006959D01*
X027478Y006946D01*
X027456Y006937D01*
X027433Y006932D01*
X027410Y006930D01*
X028500Y006905D02*
X028500Y007325D01*
X028500Y007725D01*
X028500Y008145D01*
X028502Y008168D01*
X028507Y008191D01*
X028516Y008213D01*
X028529Y008233D01*
X028544Y008251D01*
X028562Y008266D01*
X028582Y008279D01*
X028604Y008288D01*
X028627Y008293D01*
X028650Y008295D01*
X028500Y007725D02*
X028527Y007723D01*
X028554Y007718D01*
X028580Y007708D01*
X028604Y007696D01*
X028626Y007680D01*
X028646Y007662D01*
X028663Y007640D01*
X028678Y007617D01*
X028688Y007592D01*
X028696Y007566D01*
X028700Y007539D01*
X028700Y007511D01*
X028696Y007484D01*
X028688Y007458D01*
X028678Y007433D01*
X028663Y007410D01*
X028646Y007388D01*
X028626Y007370D01*
X028604Y007354D01*
X028580Y007342D01*
X028554Y007332D01*
X028527Y007327D01*
X028500Y007325D01*
X028500Y006905D02*
X028502Y006882D01*
X028507Y006859D01*
X028516Y006837D01*
X028529Y006817D01*
X028544Y006799D01*
X028562Y006784D01*
X028582Y006771D01*
X028604Y006762D01*
X028627Y006757D01*
X028650Y006755D01*
X026244Y007503D02*
X026171Y007430D01*
X026024Y007430D01*
X025951Y007503D01*
X025951Y007650D02*
X026098Y007724D01*
X026171Y007724D01*
X026244Y007650D01*
X026244Y007503D01*
X025951Y007650D02*
X025951Y007870D01*
X026244Y007870D01*
X025784Y007797D02*
X025784Y007650D01*
X025711Y007577D01*
X025490Y007577D01*
X025490Y007430D02*
X025490Y007870D01*
X025711Y007870D01*
X025784Y007797D01*
X025324Y007724D02*
X025324Y007430D01*
X025324Y007650D02*
X025030Y007650D01*
X025030Y007724D02*
X025030Y007430D01*
X024863Y007503D02*
X024863Y007650D01*
X024790Y007724D01*
X024716Y007724D01*
X024570Y007650D01*
X024570Y007870D01*
X024863Y007870D01*
X025030Y007724D02*
X025177Y007870D01*
X025324Y007724D01*
X025260Y008180D02*
X025554Y008474D01*
X025554Y008547D01*
X025480Y008620D01*
X025334Y008620D01*
X025260Y008547D01*
X025093Y008547D02*
X025020Y008620D01*
X024873Y008620D01*
X024800Y008547D01*
X024800Y008474D01*
X024873Y008400D01*
X025020Y008400D01*
X025093Y008327D01*
X025093Y008253D01*
X025020Y008180D01*
X024873Y008180D01*
X024800Y008253D01*
X024633Y008180D02*
X024339Y008180D01*
X024339Y008620D01*
X024099Y008620D02*
X023879Y008400D01*
X024173Y008400D01*
X024099Y008180D02*
X024099Y008620D01*
X023712Y008620D02*
X023712Y008547D01*
X023419Y008253D01*
X023419Y008180D01*
X023649Y007870D02*
X023649Y007650D01*
X023796Y007724D01*
X023869Y007724D01*
X023942Y007650D01*
X023942Y007503D01*
X023869Y007430D01*
X023722Y007430D01*
X023649Y007503D01*
X024109Y007503D02*
X024183Y007430D01*
X024329Y007430D01*
X024403Y007503D01*
X024403Y007650D01*
X024329Y007724D01*
X024256Y007724D01*
X024109Y007650D01*
X024109Y007870D01*
X024403Y007870D01*
X023942Y007870D02*
X023649Y007870D01*
X024570Y007503D02*
X024643Y007430D01*
X024790Y007430D01*
X024863Y007503D01*
X025260Y008180D02*
X025554Y008180D01*
X025721Y008400D02*
X026014Y008400D01*
X026181Y008400D02*
X026475Y008400D01*
X026401Y008180D02*
X026401Y008620D01*
X026181Y008400D01*
X025941Y008180D02*
X025941Y008620D01*
X025721Y008400D01*
X025480Y008980D02*
X025554Y009053D01*
X025554Y009127D01*
X025480Y009200D01*
X025260Y009200D01*
X025260Y009053D01*
X025334Y008980D01*
X025480Y008980D01*
X025260Y009200D02*
X025407Y009347D01*
X025554Y009420D01*
X025093Y009347D02*
X025020Y009420D01*
X024800Y009420D01*
X024800Y008980D01*
X025020Y008980D01*
X025093Y009053D01*
X025093Y009347D01*
X024633Y009347D02*
X024560Y009420D01*
X024339Y009420D01*
X024339Y008980D01*
X024560Y008980D01*
X024633Y009053D01*
X024633Y009347D01*
X023712Y008620D02*
X023419Y008620D01*
X022440Y008900D02*
X022484Y008898D01*
X022527Y008892D01*
X022569Y008883D01*
X022611Y008870D01*
X022651Y008853D01*
X022690Y008833D01*
X022727Y008810D01*
X022761Y008783D01*
X022794Y008754D01*
X022823Y008721D01*
X022850Y008687D01*
X022873Y008650D01*
X022893Y008611D01*
X022910Y008571D01*
X022923Y008529D01*
X022932Y008487D01*
X022938Y008444D01*
X022940Y008400D01*
X022938Y008356D01*
X022932Y008313D01*
X022923Y008271D01*
X022910Y008229D01*
X022893Y008189D01*
X022873Y008150D01*
X022850Y008113D01*
X022823Y008079D01*
X022794Y008046D01*
X022761Y008017D01*
X022727Y007990D01*
X022690Y007967D01*
X022651Y007947D01*
X022611Y007930D01*
X022569Y007917D01*
X022527Y007908D01*
X022484Y007902D01*
X022440Y007900D01*
X022440Y007080D01*
X022442Y007057D01*
X022447Y007034D01*
X022456Y007012D01*
X022469Y006992D01*
X022484Y006974D01*
X022502Y006959D01*
X022522Y006946D01*
X022544Y006937D01*
X022567Y006932D01*
X022590Y006930D01*
X021560Y007080D02*
X021560Y009720D01*
X021558Y009743D01*
X021553Y009766D01*
X021544Y009788D01*
X021531Y009808D01*
X021516Y009826D01*
X021498Y009841D01*
X021478Y009854D01*
X021456Y009863D01*
X021433Y009868D01*
X021410Y009870D01*
X022440Y009720D02*
X022440Y008900D01*
X022440Y007900D01*
X021560Y007080D02*
X021558Y007057D01*
X021553Y007034D01*
X021544Y007012D01*
X021531Y006992D01*
X021516Y006974D01*
X021498Y006959D01*
X021478Y006946D01*
X021456Y006937D01*
X021433Y006932D01*
X021410Y006930D01*
X020244Y007503D02*
X020244Y007577D01*
X020171Y007650D01*
X019951Y007650D01*
X019951Y007503D01*
X020024Y007430D01*
X020171Y007430D01*
X020244Y007503D01*
X019951Y007650D02*
X020098Y007797D01*
X020244Y007870D01*
X020254Y008180D02*
X020181Y008253D01*
X020254Y008180D02*
X020401Y008180D01*
X020475Y008253D01*
X020475Y008400D01*
X020401Y008474D01*
X020328Y008474D01*
X020181Y008400D01*
X020181Y008620D01*
X020475Y008620D01*
X019941Y008620D02*
X019721Y008400D01*
X020014Y008400D01*
X019941Y008180D02*
X019941Y008620D01*
X019554Y008547D02*
X019480Y008620D01*
X019334Y008620D01*
X019260Y008547D01*
X019093Y008547D02*
X019020Y008620D01*
X018873Y008620D01*
X018800Y008547D01*
X018800Y008474D01*
X018873Y008400D01*
X019020Y008400D01*
X019093Y008327D01*
X019093Y008253D01*
X019020Y008180D01*
X018873Y008180D01*
X018800Y008253D01*
X018633Y008180D02*
X018339Y008180D01*
X018339Y008620D01*
X018099Y008620D02*
X017879Y008400D01*
X018173Y008400D01*
X018099Y008180D02*
X018099Y008620D01*
X017712Y008620D02*
X017712Y008547D01*
X017419Y008253D01*
X017419Y008180D01*
X017649Y007870D02*
X017649Y007650D01*
X017796Y007724D01*
X017869Y007724D01*
X017942Y007650D01*
X017942Y007503D01*
X017869Y007430D01*
X017722Y007430D01*
X017649Y007503D01*
X018109Y007503D02*
X018183Y007430D01*
X018329Y007430D01*
X018403Y007503D01*
X018403Y007650D01*
X018329Y007724D01*
X018256Y007724D01*
X018109Y007650D01*
X018109Y007870D01*
X018403Y007870D01*
X018570Y007870D02*
X018570Y007650D01*
X018716Y007724D01*
X018790Y007724D01*
X018863Y007650D01*
X018863Y007503D01*
X018790Y007430D01*
X018643Y007430D01*
X018570Y007503D01*
X019030Y007430D02*
X019030Y007724D01*
X019177Y007870D01*
X019324Y007724D01*
X019324Y007430D01*
X019490Y007430D02*
X019490Y007870D01*
X019711Y007870D01*
X019784Y007797D01*
X019784Y007650D01*
X019711Y007577D01*
X019490Y007577D01*
X019324Y007650D02*
X019030Y007650D01*
X018863Y007870D02*
X018570Y007870D01*
X017942Y007870D02*
X017649Y007870D01*
X016440Y007900D02*
X016440Y007080D01*
X016442Y007057D01*
X016447Y007034D01*
X016456Y007012D01*
X016469Y006992D01*
X016484Y006974D01*
X016502Y006959D01*
X016522Y006946D01*
X016544Y006937D01*
X016567Y006932D01*
X016590Y006930D01*
X015560Y007080D02*
X015560Y009720D01*
X015558Y009743D01*
X015553Y009766D01*
X015544Y009788D01*
X015531Y009808D01*
X015516Y009826D01*
X015498Y009841D01*
X015478Y009854D01*
X015456Y009863D01*
X015433Y009868D01*
X015410Y009870D01*
X016440Y009720D02*
X016440Y008900D01*
X016440Y007900D01*
X016484Y007902D01*
X016527Y007908D01*
X016569Y007917D01*
X016611Y007930D01*
X016651Y007947D01*
X016690Y007967D01*
X016727Y007990D01*
X016761Y008017D01*
X016794Y008046D01*
X016823Y008079D01*
X016850Y008113D01*
X016873Y008150D01*
X016893Y008189D01*
X016910Y008229D01*
X016923Y008271D01*
X016932Y008313D01*
X016938Y008356D01*
X016940Y008400D01*
X016938Y008444D01*
X016932Y008487D01*
X016923Y008529D01*
X016910Y008571D01*
X016893Y008611D01*
X016873Y008650D01*
X016850Y008687D01*
X016823Y008721D01*
X016794Y008754D01*
X016761Y008783D01*
X016727Y008810D01*
X016690Y008833D01*
X016651Y008853D01*
X016611Y008870D01*
X016569Y008883D01*
X016527Y008892D01*
X016484Y008898D01*
X016440Y008900D01*
X017419Y008620D02*
X017712Y008620D01*
X018339Y008980D02*
X018560Y008980D01*
X018633Y009053D01*
X018633Y009347D01*
X018560Y009420D01*
X018339Y009420D01*
X018339Y008980D01*
X018800Y008980D02*
X018800Y009420D01*
X019020Y009420D01*
X019093Y009347D01*
X019093Y009053D01*
X019020Y008980D01*
X018800Y008980D01*
X019260Y009053D02*
X019334Y008980D01*
X019480Y008980D01*
X019554Y009053D01*
X019554Y009127D01*
X019480Y009200D01*
X019407Y009200D01*
X019480Y009200D02*
X019554Y009274D01*
X019554Y009347D01*
X019480Y009420D01*
X019334Y009420D01*
X019260Y009347D01*
X019554Y008547D02*
X019554Y008474D01*
X019260Y008180D01*
X019554Y008180D01*
X016590Y009870D02*
X016567Y009868D01*
X016544Y009863D01*
X016522Y009854D01*
X016502Y009841D01*
X016484Y009826D01*
X016469Y009808D01*
X016456Y009788D01*
X016447Y009766D01*
X016442Y009743D01*
X016440Y009720D01*
X014401Y008620D02*
X014181Y008400D01*
X014475Y008400D01*
X014401Y008180D02*
X014401Y008620D01*
X014014Y008620D02*
X014014Y008547D01*
X013721Y008253D01*
X013721Y008180D01*
X013554Y008253D02*
X013480Y008180D01*
X013334Y008180D01*
X013260Y008253D01*
X013093Y008253D02*
X013020Y008180D01*
X012873Y008180D01*
X012800Y008253D01*
X012873Y008400D02*
X013020Y008400D01*
X013093Y008327D01*
X013093Y008253D01*
X012873Y008400D02*
X012800Y008474D01*
X012800Y008547D01*
X012873Y008620D01*
X013020Y008620D01*
X013093Y008547D01*
X013260Y008547D02*
X013334Y008620D01*
X013480Y008620D01*
X013554Y008547D01*
X013554Y008474D01*
X013480Y008400D01*
X013554Y008327D01*
X013554Y008253D01*
X013480Y008400D02*
X013407Y008400D01*
X013721Y008620D02*
X014014Y008620D01*
X013480Y008980D02*
X013480Y009420D01*
X013260Y009200D01*
X013554Y009200D01*
X013093Y009053D02*
X013093Y009347D01*
X013020Y009420D01*
X012800Y009420D01*
X012800Y008980D01*
X013020Y008980D01*
X013093Y009053D01*
X012633Y009053D02*
X012633Y009347D01*
X012560Y009420D01*
X012339Y009420D01*
X012339Y008980D01*
X012560Y008980D01*
X012633Y009053D01*
X012339Y008620D02*
X012339Y008180D01*
X012633Y008180D01*
X012173Y008400D02*
X011879Y008400D01*
X012099Y008620D01*
X012099Y008180D01*
X011956Y007870D02*
X011956Y007650D01*
X012103Y007724D01*
X012176Y007724D01*
X012249Y007650D01*
X012249Y007503D01*
X012176Y007430D01*
X012029Y007430D01*
X011956Y007503D01*
X011789Y007503D02*
X011716Y007430D01*
X011569Y007430D01*
X011495Y007503D01*
X011495Y007650D02*
X011642Y007724D01*
X011716Y007724D01*
X011789Y007650D01*
X011789Y007503D01*
X011495Y007650D02*
X011495Y007870D01*
X011789Y007870D01*
X011956Y007870D02*
X012249Y007870D01*
X012416Y007870D02*
X012416Y007650D01*
X012563Y007724D01*
X012636Y007724D01*
X012710Y007650D01*
X012710Y007503D01*
X012636Y007430D01*
X012490Y007430D01*
X012416Y007503D01*
X012877Y007430D02*
X013023Y007430D01*
X012950Y007430D02*
X012950Y007870D01*
X012877Y007870D02*
X013023Y007870D01*
X013183Y007870D02*
X013404Y007870D01*
X013477Y007797D01*
X013477Y007650D01*
X013404Y007577D01*
X013183Y007577D01*
X013183Y007430D02*
X013183Y007870D01*
X013330Y007577D02*
X013477Y007430D01*
X013644Y007430D02*
X013937Y007724D01*
X013937Y007797D01*
X013864Y007870D01*
X013717Y007870D01*
X013644Y007797D01*
X013644Y007430D02*
X013937Y007430D01*
X014104Y007503D02*
X014178Y007430D01*
X014324Y007430D01*
X014398Y007503D01*
X014398Y007577D01*
X014324Y007650D01*
X014251Y007650D01*
X014324Y007650D02*
X014398Y007724D01*
X014398Y007797D01*
X014324Y007870D01*
X014178Y007870D01*
X014104Y007797D01*
X012710Y007870D02*
X012416Y007870D01*
X011712Y008547D02*
X011419Y008253D01*
X011419Y008180D01*
X011712Y008547D02*
X011712Y008620D01*
X011419Y008620D01*
X010440Y008900D02*
X010484Y008898D01*
X010527Y008892D01*
X010569Y008883D01*
X010611Y008870D01*
X010651Y008853D01*
X010690Y008833D01*
X010727Y008810D01*
X010761Y008783D01*
X010794Y008754D01*
X010823Y008721D01*
X010850Y008687D01*
X010873Y008650D01*
X010893Y008611D01*
X010910Y008571D01*
X010923Y008529D01*
X010932Y008487D01*
X010938Y008444D01*
X010940Y008400D01*
X010938Y008356D01*
X010932Y008313D01*
X010923Y008271D01*
X010910Y008229D01*
X010893Y008189D01*
X010873Y008150D01*
X010850Y008113D01*
X010823Y008079D01*
X010794Y008046D01*
X010761Y008017D01*
X010727Y007990D01*
X010690Y007967D01*
X010651Y007947D01*
X010611Y007930D01*
X010569Y007917D01*
X010527Y007908D01*
X010484Y007902D01*
X010440Y007900D01*
X010440Y007080D01*
X010442Y007057D01*
X010447Y007034D01*
X010456Y007012D01*
X010469Y006992D01*
X010484Y006974D01*
X010502Y006959D01*
X010522Y006946D01*
X010544Y006937D01*
X010567Y006932D01*
X010590Y006930D01*
X009560Y007080D02*
X009560Y009720D01*
X009558Y009743D01*
X009553Y009766D01*
X009544Y009788D01*
X009531Y009808D01*
X009516Y009826D01*
X009498Y009841D01*
X009478Y009854D01*
X009456Y009863D01*
X009433Y009868D01*
X009410Y009870D01*
X010440Y009720D02*
X010440Y008900D01*
X010440Y007900D01*
X009560Y007080D02*
X009558Y007057D01*
X009553Y007034D01*
X009544Y007012D01*
X009531Y006992D01*
X009516Y006974D01*
X009498Y006959D01*
X009478Y006946D01*
X009456Y006937D01*
X009433Y006932D01*
X009410Y006930D01*
X008398Y007503D02*
X008324Y007430D01*
X008178Y007430D01*
X008104Y007503D01*
X007937Y007430D02*
X007644Y007430D01*
X007937Y007724D01*
X007937Y007797D01*
X007864Y007870D01*
X007717Y007870D01*
X007644Y007797D01*
X007477Y007797D02*
X007477Y007650D01*
X007404Y007577D01*
X007183Y007577D01*
X007183Y007430D02*
X007183Y007870D01*
X007404Y007870D01*
X007477Y007797D01*
X007330Y007577D02*
X007477Y007430D01*
X007023Y007430D02*
X006877Y007430D01*
X006950Y007430D02*
X006950Y007870D01*
X006877Y007870D02*
X007023Y007870D01*
X006710Y007870D02*
X006416Y007870D01*
X006416Y007650D01*
X006563Y007724D01*
X006636Y007724D01*
X006710Y007650D01*
X006710Y007503D01*
X006636Y007430D01*
X006490Y007430D01*
X006416Y007503D01*
X006249Y007503D02*
X006176Y007430D01*
X006029Y007430D01*
X005956Y007503D01*
X005956Y007650D02*
X006103Y007724D01*
X006176Y007724D01*
X006249Y007650D01*
X006249Y007503D01*
X005956Y007650D02*
X005956Y007870D01*
X006249Y007870D01*
X006339Y008180D02*
X006633Y008180D01*
X006800Y008253D02*
X006873Y008180D01*
X007020Y008180D01*
X007093Y008253D01*
X007093Y008327D01*
X007020Y008400D01*
X006873Y008400D01*
X006800Y008474D01*
X006800Y008547D01*
X006873Y008620D01*
X007020Y008620D01*
X007093Y008547D01*
X007260Y008547D02*
X007334Y008620D01*
X007480Y008620D01*
X007554Y008547D01*
X007554Y008474D01*
X007480Y008400D01*
X007554Y008327D01*
X007554Y008253D01*
X007480Y008180D01*
X007334Y008180D01*
X007260Y008253D01*
X007407Y008400D02*
X007480Y008400D01*
X007721Y008253D02*
X007721Y008180D01*
X007721Y008253D02*
X008014Y008547D01*
X008014Y008620D01*
X007721Y008620D01*
X007480Y008980D02*
X007334Y008980D01*
X007260Y009053D01*
X007260Y009200D02*
X007407Y009274D01*
X007480Y009274D01*
X007554Y009200D01*
X007554Y009053D01*
X007480Y008980D01*
X007260Y009200D02*
X007260Y009420D01*
X007554Y009420D01*
X007093Y009347D02*
X007093Y009053D01*
X007020Y008980D01*
X006800Y008980D01*
X006800Y009420D01*
X007020Y009420D01*
X007093Y009347D01*
X006633Y009347D02*
X006560Y009420D01*
X006339Y009420D01*
X006339Y008980D01*
X006560Y008980D01*
X006633Y009053D01*
X006633Y009347D01*
X006339Y008620D02*
X006339Y008180D01*
X006099Y008180D02*
X006099Y008620D01*
X005879Y008400D01*
X006173Y008400D01*
X005712Y008547D02*
X005712Y008620D01*
X005419Y008620D01*
X005712Y008547D02*
X005419Y008253D01*
X005419Y008180D01*
X005495Y007870D02*
X005495Y007650D01*
X005642Y007724D01*
X005716Y007724D01*
X005789Y007650D01*
X005789Y007503D01*
X005716Y007430D01*
X005569Y007430D01*
X005495Y007503D01*
X005495Y007870D02*
X005789Y007870D01*
X004440Y007900D02*
X004440Y007080D01*
X004442Y007057D01*
X004447Y007034D01*
X004456Y007012D01*
X004469Y006992D01*
X004484Y006974D01*
X004502Y006959D01*
X004522Y006946D01*
X004544Y006937D01*
X004567Y006932D01*
X004590Y006930D01*
X004440Y007900D02*
X004440Y008900D01*
X004440Y009720D01*
X004442Y009743D01*
X004447Y009766D01*
X004456Y009788D01*
X004469Y009808D01*
X004484Y009826D01*
X004502Y009841D01*
X004522Y009854D01*
X004544Y009863D01*
X004567Y009868D01*
X004590Y009870D01*
X004440Y008900D02*
X004484Y008898D01*
X004527Y008892D01*
X004569Y008883D01*
X004611Y008870D01*
X004651Y008853D01*
X004690Y008833D01*
X004727Y008810D01*
X004761Y008783D01*
X004794Y008754D01*
X004823Y008721D01*
X004850Y008687D01*
X004873Y008650D01*
X004893Y008611D01*
X004910Y008571D01*
X004923Y008529D01*
X004932Y008487D01*
X004938Y008444D01*
X004940Y008400D01*
X004938Y008356D01*
X004932Y008313D01*
X004923Y008271D01*
X004910Y008229D01*
X004893Y008189D01*
X004873Y008150D01*
X004850Y008113D01*
X004823Y008079D01*
X004794Y008046D01*
X004761Y008017D01*
X004727Y007990D01*
X004690Y007967D01*
X004651Y007947D01*
X004611Y007930D01*
X004569Y007917D01*
X004527Y007908D01*
X004484Y007902D01*
X004440Y007900D01*
X008104Y007797D02*
X008178Y007870D01*
X008324Y007870D01*
X008398Y007797D01*
X008398Y007724D01*
X008324Y007650D01*
X008398Y007577D01*
X008398Y007503D01*
X008324Y007650D02*
X008251Y007650D01*
X008401Y008180D02*
X008401Y008620D01*
X008181Y008400D01*
X008475Y008400D01*
X010440Y009720D02*
X010442Y009743D01*
X010447Y009766D01*
X010456Y009788D01*
X010469Y009808D01*
X010484Y009826D01*
X010502Y009841D01*
X010522Y009854D01*
X010544Y009863D01*
X010567Y009868D01*
X010590Y009870D01*
X012874Y011408D02*
X012947Y011408D01*
X013020Y011482D01*
X013020Y011849D01*
X012727Y011849D02*
X012727Y011628D01*
X012800Y011555D01*
X013020Y011555D01*
X013648Y011555D02*
X013868Y011555D01*
X013941Y011628D01*
X013868Y011702D01*
X013721Y011702D01*
X013648Y011775D01*
X013721Y011849D01*
X013941Y011849D01*
X014108Y011775D02*
X014181Y011849D01*
X014328Y011849D01*
X014402Y011775D01*
X014402Y011555D01*
X014568Y011628D02*
X014642Y011555D01*
X014789Y011555D01*
X014862Y011628D01*
X014862Y011775D01*
X014789Y011849D01*
X014642Y011849D01*
X014568Y011775D01*
X014568Y011628D01*
X015029Y011628D02*
X015029Y011775D01*
X015102Y011849D01*
X015322Y011849D01*
X015489Y011995D02*
X015489Y011555D01*
X015489Y011702D02*
X015709Y011555D01*
X015873Y011482D02*
X016166Y011482D01*
X016333Y011482D02*
X016627Y011482D01*
X015709Y011849D02*
X015489Y011702D01*
X015322Y011555D02*
X015102Y011555D01*
X015029Y011628D01*
X014108Y011555D02*
X014108Y011995D01*
X012560Y011775D02*
X012560Y011628D01*
X012487Y011555D01*
X012266Y011555D01*
X012266Y011995D01*
X012266Y011849D02*
X012487Y011849D01*
X012560Y011775D01*
X012368Y012305D02*
X012075Y012745D01*
X022440Y009720D02*
X022442Y009743D01*
X022447Y009766D01*
X022456Y009788D01*
X022469Y009808D01*
X022484Y009826D01*
X022502Y009841D01*
X022522Y009854D01*
X022544Y009863D01*
X022567Y009868D01*
X022590Y009870D01*
X027410Y009870D02*
X027433Y009868D01*
X027456Y009863D01*
X027478Y009854D01*
X027498Y009841D01*
X027516Y009826D01*
X027531Y009808D01*
X027544Y009788D01*
X027553Y009766D01*
X027558Y009743D01*
X027560Y009720D01*
X032350Y008295D02*
X032373Y008293D01*
X032396Y008288D01*
X032418Y008279D01*
X032438Y008266D01*
X032456Y008251D01*
X032471Y008233D01*
X032484Y008213D01*
X032493Y008191D01*
X032498Y008168D01*
X032500Y008145D01*
X032500Y006905D01*
X032498Y006882D01*
X032493Y006859D01*
X032484Y006837D01*
X032471Y006817D01*
X032456Y006799D01*
X032438Y006784D01*
X032418Y006771D01*
X032396Y006762D01*
X032373Y006757D01*
X032350Y006755D01*
X015560Y007080D02*
X015558Y007057D01*
X015553Y007034D01*
X015544Y007012D01*
X015531Y006992D01*
X015516Y006974D01*
X015498Y006959D01*
X015478Y006946D01*
X015456Y006937D01*
X015433Y006932D01*
X015410Y006930D01*
X004275Y004650D02*
X004175Y004650D01*
X004175Y004550D01*
X004175Y004650D02*
X004075Y004650D01*
X004175Y004650D02*
X004175Y004750D01*
X002625Y005150D02*
X002627Y005213D01*
X002633Y005275D01*
X002643Y005337D01*
X002656Y005399D01*
X002674Y005459D01*
X002695Y005518D01*
X002720Y005576D01*
X002749Y005632D01*
X002781Y005686D01*
X002816Y005738D01*
X002854Y005787D01*
X002896Y005835D01*
X002940Y005879D01*
X002988Y005921D01*
X003037Y005959D01*
X003089Y005994D01*
X003143Y006026D01*
X003199Y006055D01*
X003257Y006080D01*
X003316Y006101D01*
X003376Y006119D01*
X003438Y006132D01*
X003500Y006142D01*
X003562Y006148D01*
X003625Y006150D01*
X003688Y006148D01*
X003750Y006142D01*
X003812Y006132D01*
X003874Y006119D01*
X003934Y006101D01*
X003993Y006080D01*
X004051Y006055D01*
X004107Y006026D01*
X004161Y005994D01*
X004213Y005959D01*
X004262Y005921D01*
X004310Y005879D01*
X004354Y005835D01*
X004396Y005787D01*
X004434Y005738D01*
X004469Y005686D01*
X004501Y005632D01*
X004530Y005576D01*
X004555Y005518D01*
X004576Y005459D01*
X004594Y005399D01*
X004607Y005337D01*
X004617Y005275D01*
X004623Y005213D01*
X004625Y005150D01*
X004623Y005087D01*
X004617Y005025D01*
X004607Y004963D01*
X004594Y004901D01*
X004576Y004841D01*
X004555Y004782D01*
X004530Y004724D01*
X004501Y004668D01*
X004469Y004614D01*
X004434Y004562D01*
X004396Y004513D01*
X004354Y004465D01*
X004310Y004421D01*
X004262Y004379D01*
X004213Y004341D01*
X004161Y004306D01*
X004107Y004274D01*
X004051Y004245D01*
X003993Y004220D01*
X003934Y004199D01*
X003874Y004181D01*
X003812Y004168D01*
X003750Y004158D01*
X003688Y004152D01*
X003625Y004150D01*
X003562Y004152D01*
X003500Y004158D01*
X003438Y004168D01*
X003376Y004181D01*
X003316Y004199D01*
X003257Y004220D01*
X003199Y004245D01*
X003143Y004274D01*
X003089Y004306D01*
X003037Y004341D01*
X002988Y004379D01*
X002940Y004421D01*
X002896Y004465D01*
X002854Y004513D01*
X002816Y004562D01*
X002781Y004614D01*
X002749Y004668D01*
X002720Y004724D01*
X002695Y004782D01*
X002674Y004841D01*
X002656Y004901D01*
X002643Y004963D01*
X002633Y005025D01*
X002627Y005087D01*
X002625Y005150D01*
D13*
X028995Y007103D02*
X028995Y007243D01*
X029041Y007290D01*
X029228Y007290D01*
X029275Y007243D01*
X029275Y007103D01*
X028995Y007103D01*
X028995Y007398D02*
X028995Y007538D01*
X029041Y007585D01*
X029228Y007585D01*
X029275Y007538D01*
X029275Y007398D01*
X028995Y007398D01*
X029041Y007692D02*
X028995Y007739D01*
X028995Y007832D01*
X029041Y007879D01*
X029088Y007879D01*
X029275Y007692D01*
X029275Y007879D01*
X029614Y007905D02*
X029801Y007905D01*
X029801Y007859D01*
X029614Y007672D01*
X029614Y007625D01*
X029810Y007425D02*
X029810Y007285D01*
X029904Y007332D01*
X029950Y007332D01*
X029997Y007285D01*
X029997Y007192D01*
X029950Y007145D01*
X029857Y007145D01*
X029810Y007192D01*
X029810Y007425D02*
X029997Y007425D01*
X030105Y007425D02*
X030105Y007285D01*
X030198Y007332D01*
X030245Y007332D01*
X030292Y007285D01*
X030292Y007192D01*
X030245Y007145D01*
X030152Y007145D01*
X030105Y007192D01*
X030105Y007425D02*
X030292Y007425D01*
X030399Y007425D02*
X030399Y007285D01*
X030493Y007332D01*
X030540Y007332D01*
X030586Y007285D01*
X030586Y007192D01*
X030540Y007145D01*
X030446Y007145D01*
X030399Y007192D01*
X030399Y007425D02*
X030586Y007425D01*
X030694Y007425D02*
X030788Y007425D01*
X030741Y007425D02*
X030741Y007145D01*
X030694Y007145D02*
X030788Y007145D01*
X030891Y007145D02*
X031031Y007145D01*
X031077Y007192D01*
X031077Y007379D01*
X031031Y007425D01*
X030891Y007425D01*
X030891Y007145D01*
X031185Y007145D02*
X031185Y007192D01*
X031372Y007379D01*
X031372Y007425D01*
X031185Y007425D01*
X031227Y007625D02*
X031134Y007625D01*
X031087Y007672D01*
X030979Y007625D02*
X030792Y007625D01*
X030886Y007625D02*
X030886Y007905D01*
X030792Y007812D01*
X030684Y007859D02*
X030638Y007905D01*
X030544Y007905D01*
X030498Y007859D01*
X030498Y007812D01*
X030544Y007765D01*
X030638Y007765D01*
X030684Y007718D01*
X030684Y007672D01*
X030638Y007625D01*
X030544Y007625D01*
X030498Y007672D01*
X030390Y007625D02*
X030203Y007625D01*
X030203Y007905D01*
X030048Y007905D02*
X029908Y007765D01*
X030095Y007765D01*
X030048Y007625D02*
X030048Y007905D01*
X031087Y007859D02*
X031134Y007905D01*
X031227Y007905D01*
X031274Y007859D01*
X031274Y007812D01*
X031227Y007765D01*
X031274Y007718D01*
X031274Y007672D01*
X031227Y007625D01*
X031227Y007765D02*
X031180Y007765D01*
X031382Y007718D02*
X031428Y007765D01*
X031522Y007765D01*
X031568Y007718D01*
X031568Y007672D01*
X031522Y007625D01*
X031428Y007625D01*
X031382Y007672D01*
X031382Y007718D01*
X031428Y007765D02*
X031382Y007812D01*
X031382Y007859D01*
X031428Y007905D01*
X031522Y007905D01*
X031568Y007859D01*
X031568Y007812D01*
X031522Y007765D01*
X029275Y011103D02*
X028995Y011103D01*
X028995Y011243D01*
X029041Y011290D01*
X029228Y011290D01*
X029275Y011243D01*
X029275Y011103D01*
X029275Y011398D02*
X028995Y011398D01*
X028995Y011538D01*
X029041Y011585D01*
X029228Y011585D01*
X029275Y011538D01*
X029275Y011398D01*
X029614Y011625D02*
X029614Y011672D01*
X029801Y011859D01*
X029801Y011905D01*
X029614Y011905D01*
X029908Y011765D02*
X030095Y011765D01*
X030048Y011625D02*
X030048Y011905D01*
X029908Y011765D01*
X030203Y011625D02*
X030390Y011625D01*
X030498Y011672D02*
X030544Y011625D01*
X030638Y011625D01*
X030684Y011672D01*
X030684Y011718D01*
X030638Y011765D01*
X030544Y011765D01*
X030498Y011812D01*
X030498Y011859D01*
X030544Y011905D01*
X030638Y011905D01*
X030684Y011859D01*
X030792Y011812D02*
X030886Y011905D01*
X030886Y011625D01*
X030979Y011625D02*
X030792Y011625D01*
X030788Y011425D02*
X030694Y011425D01*
X030741Y011425D02*
X030741Y011145D01*
X030694Y011145D02*
X030788Y011145D01*
X030891Y011145D02*
X031031Y011145D01*
X031077Y011192D01*
X031077Y011379D01*
X031031Y011425D01*
X030891Y011425D01*
X030891Y011145D01*
X031185Y011145D02*
X031185Y011192D01*
X031372Y011379D01*
X031372Y011425D01*
X031185Y011425D01*
X031227Y011625D02*
X031134Y011625D01*
X031087Y011672D01*
X031180Y011765D02*
X031227Y011765D01*
X031274Y011718D01*
X031274Y011672D01*
X031227Y011625D01*
X031227Y011765D02*
X031274Y011812D01*
X031274Y011859D01*
X031227Y011905D01*
X031134Y011905D01*
X031087Y011859D01*
X031382Y011859D02*
X031382Y011812D01*
X031428Y011765D01*
X031522Y011765D01*
X031568Y011718D01*
X031568Y011672D01*
X031522Y011625D01*
X031428Y011625D01*
X031382Y011672D01*
X031382Y011718D01*
X031428Y011765D01*
X031522Y011765D02*
X031568Y011812D01*
X031568Y011859D01*
X031522Y011905D01*
X031428Y011905D01*
X031382Y011859D01*
X030586Y011425D02*
X030399Y011425D01*
X030399Y011285D01*
X030493Y011332D01*
X030540Y011332D01*
X030586Y011285D01*
X030586Y011192D01*
X030540Y011145D01*
X030446Y011145D01*
X030399Y011192D01*
X030292Y011192D02*
X030245Y011145D01*
X030152Y011145D01*
X030105Y011192D01*
X030105Y011285D02*
X030198Y011332D01*
X030245Y011332D01*
X030292Y011285D01*
X030292Y011192D01*
X030105Y011285D02*
X030105Y011425D01*
X030292Y011425D01*
X030203Y011625D02*
X030203Y011905D01*
X029997Y011425D02*
X029810Y011425D01*
X029810Y011285D01*
X029904Y011332D01*
X029950Y011332D01*
X029997Y011285D01*
X029997Y011192D01*
X029950Y011145D01*
X029857Y011145D01*
X029810Y011192D01*
X029275Y011692D02*
X029275Y011879D01*
X029275Y011786D02*
X028995Y011786D01*
X029088Y011692D01*
D14*
X028500Y010895D02*
X032500Y010895D01*
X027550Y007070D02*
X022450Y007070D01*
X021550Y007070D02*
X016450Y007070D01*
X015550Y007070D02*
X010450Y007070D01*
X009550Y007070D02*
X004450Y007070D01*
X028500Y006895D02*
X032500Y006895D01*
M02*
