G75*
G70*
%OFA0B0*%
%FSLAX24Y24*%
%IPPOS*%
%LPD*%
%AMOC8*
5,1,8,0,0,1.08239X$1,22.5*
%
%ADD10C,0.0100*%
%ADD11C,0.0050*%
%ADD12C,0.0030*%
D10*
X002063Y000463D02*
X002313Y000213D01*
X033688Y000213D01*
X033938Y000463D01*
X033938Y016400D01*
X002063Y016400D01*
X002063Y000463D01*
D11*
X016625Y008150D02*
X022250Y008150D01*
X022250Y008650D01*
X016625Y008650D01*
X016625Y008150D01*
X016625Y008650D02*
X016625Y009138D01*
X016625Y008650D02*
X017091Y008650D01*
X017485Y008650D02*
X017951Y008650D01*
X018345Y008650D02*
X018811Y008650D01*
X019204Y008650D02*
X019671Y008650D01*
X020064Y008650D02*
X020530Y008650D01*
X020924Y008650D02*
X021390Y008650D01*
X021784Y008650D02*
X022250Y008650D01*
X022250Y009138D01*
X022250Y009531D02*
X022250Y010019D01*
X022250Y010412D02*
X022250Y010900D01*
X021784Y010900D01*
X021390Y010900D02*
X020924Y010900D01*
X020530Y010900D02*
X020064Y010900D01*
X019671Y010900D02*
X019204Y010900D01*
X018811Y010900D02*
X018345Y010900D01*
X017951Y010900D02*
X017485Y010900D01*
X017091Y010900D02*
X016625Y010900D01*
X016625Y010412D01*
X016625Y010019D02*
X016625Y009531D01*
D12*
X017140Y009337D02*
X017140Y009267D01*
X017175Y009232D01*
X017245Y009232D01*
X017245Y009337D01*
X017210Y009372D01*
X017175Y009372D01*
X017140Y009337D01*
X017245Y009232D02*
X017315Y009302D01*
X017350Y009372D01*
X017140Y009151D02*
X017140Y009011D01*
X017140Y009081D02*
X017350Y009081D01*
X017280Y009011D01*
X017245Y008930D02*
X017210Y008895D01*
X017210Y008790D01*
X017140Y008790D02*
X017350Y008790D01*
X017350Y008895D01*
X017315Y008930D01*
X017245Y008930D01*
X017210Y008860D02*
X017140Y008930D01*
X017765Y008930D02*
X017835Y008860D01*
X017835Y008895D02*
X017835Y008790D01*
X017765Y008790D02*
X017975Y008790D01*
X017975Y008895D01*
X017940Y008930D01*
X017870Y008930D01*
X017835Y008895D01*
X017765Y009011D02*
X017765Y009151D01*
X017765Y009081D02*
X017975Y009081D01*
X017905Y009011D01*
X017870Y009232D02*
X017905Y009302D01*
X017905Y009337D01*
X017870Y009372D01*
X017800Y009372D01*
X017765Y009337D01*
X017765Y009267D01*
X017800Y009232D01*
X017870Y009232D02*
X017975Y009232D01*
X017975Y009372D01*
X018390Y009337D02*
X018600Y009337D01*
X018495Y009232D01*
X018495Y009372D01*
X018390Y009151D02*
X018390Y009011D01*
X018390Y009081D02*
X018600Y009081D01*
X018530Y009011D01*
X018495Y008930D02*
X018460Y008895D01*
X018460Y008790D01*
X018390Y008790D02*
X018600Y008790D01*
X018600Y008895D01*
X018565Y008930D01*
X018495Y008930D01*
X018460Y008860D02*
X018390Y008930D01*
X018410Y008510D02*
X018410Y008300D01*
X018329Y008300D02*
X018224Y008300D01*
X018189Y008335D01*
X018189Y008475D01*
X018224Y008510D01*
X018329Y008510D01*
X018329Y008300D01*
X018410Y008405D02*
X018550Y008405D01*
X018550Y008300D02*
X018550Y008510D01*
X018852Y008405D02*
X018852Y008335D01*
X018887Y008300D01*
X018992Y008300D01*
X018992Y008230D02*
X018992Y008440D01*
X018887Y008440D01*
X018852Y008405D01*
X019073Y008440D02*
X019073Y008300D01*
X019178Y008300D01*
X019213Y008335D01*
X019213Y008440D01*
X019325Y008510D02*
X019325Y008300D01*
X019360Y008300D02*
X019290Y008300D01*
X019437Y008300D02*
X019507Y008300D01*
X019472Y008300D02*
X019472Y008510D01*
X019507Y008510D01*
X019588Y008440D02*
X019588Y008300D01*
X019693Y008300D01*
X019728Y008335D01*
X019728Y008440D01*
X019809Y008405D02*
X019809Y008335D01*
X019844Y008300D01*
X019949Y008300D01*
X019949Y008230D02*
X019949Y008440D01*
X019844Y008440D01*
X019809Y008405D01*
X019360Y008510D02*
X019325Y008510D01*
X019225Y008790D02*
X019015Y008790D01*
X019085Y008790D02*
X019085Y008895D01*
X019120Y008930D01*
X019190Y008930D01*
X019225Y008895D01*
X019225Y008790D01*
X019085Y008860D02*
X019015Y008930D01*
X019015Y009011D02*
X019015Y009151D01*
X019015Y009081D02*
X019225Y009081D01*
X019155Y009011D01*
X019190Y009232D02*
X019225Y009267D01*
X019225Y009337D01*
X019190Y009372D01*
X019155Y009372D01*
X019120Y009337D01*
X019085Y009372D01*
X019050Y009372D01*
X019015Y009337D01*
X019015Y009267D01*
X019050Y009232D01*
X019120Y009302D02*
X019120Y009337D01*
X019640Y009372D02*
X019640Y009232D01*
X019780Y009372D01*
X019815Y009372D01*
X019850Y009337D01*
X019850Y009267D01*
X019815Y009232D01*
X019850Y009081D02*
X019640Y009081D01*
X019640Y009011D02*
X019640Y009151D01*
X019780Y009011D02*
X019850Y009081D01*
X019815Y008930D02*
X019745Y008930D01*
X019710Y008895D01*
X019710Y008790D01*
X019640Y008790D02*
X019850Y008790D01*
X019850Y008895D01*
X019815Y008930D01*
X019710Y008860D02*
X019640Y008930D01*
X020265Y008930D02*
X020335Y008860D01*
X020335Y008895D02*
X020335Y008790D01*
X020265Y008790D02*
X020475Y008790D01*
X020475Y008895D01*
X020440Y008930D01*
X020370Y008930D01*
X020335Y008895D01*
X020265Y009011D02*
X020265Y009151D01*
X020265Y009081D02*
X020475Y009081D01*
X020405Y009011D01*
X020405Y009232D02*
X020475Y009302D01*
X020265Y009302D01*
X020265Y009232D02*
X020265Y009372D01*
X020890Y009337D02*
X020890Y009267D01*
X020925Y009232D01*
X021065Y009372D01*
X020925Y009372D01*
X020890Y009337D01*
X020925Y009232D02*
X021065Y009232D01*
X021100Y009267D01*
X021100Y009337D01*
X021065Y009372D01*
X020890Y009151D02*
X020890Y009011D01*
X020890Y009081D02*
X021100Y009081D01*
X021030Y009011D01*
X020995Y008930D02*
X020960Y008895D01*
X020960Y008790D01*
X020890Y008790D02*
X021100Y008790D01*
X021100Y008895D01*
X021065Y008930D01*
X020995Y008930D01*
X020960Y008860D02*
X020890Y008930D01*
X021515Y008915D02*
X021725Y008915D01*
X021725Y009020D01*
X021690Y009055D01*
X021620Y009055D01*
X021585Y009020D01*
X021585Y008915D01*
X021585Y008985D02*
X021515Y009055D01*
X021550Y009136D02*
X021515Y009171D01*
X021515Y009241D01*
X021550Y009276D01*
X021690Y009276D01*
X021725Y009241D01*
X021725Y009171D01*
X021690Y009136D01*
X021655Y009136D01*
X021620Y009171D01*
X021620Y009276D01*
X021612Y008510D02*
X021577Y008475D01*
X021577Y008335D01*
X021612Y008300D01*
X021682Y008300D01*
X021717Y008335D01*
X021717Y008475D01*
X021682Y008510D01*
X021612Y008510D01*
X021496Y008440D02*
X021391Y008440D01*
X021356Y008405D01*
X021356Y008335D01*
X021391Y008300D01*
X021496Y008300D01*
X021496Y008230D02*
X021496Y008440D01*
X021275Y008440D02*
X021205Y008440D01*
X021240Y008475D02*
X021240Y008335D01*
X021205Y008300D01*
X021128Y008300D02*
X021058Y008300D01*
X021093Y008300D02*
X021093Y008440D01*
X021128Y008440D01*
X021093Y008510D02*
X021093Y008545D01*
X020981Y008405D02*
X020946Y008440D01*
X020875Y008440D01*
X020840Y008405D01*
X020840Y008335D01*
X020875Y008300D01*
X020946Y008300D01*
X020981Y008335D01*
X020981Y008405D01*
X020760Y008440D02*
X020655Y008440D01*
X020619Y008405D01*
X020619Y008300D01*
X020539Y008335D02*
X020504Y008370D01*
X020398Y008370D01*
X020398Y008405D02*
X020398Y008300D01*
X020504Y008300D01*
X020539Y008335D01*
X020504Y008440D02*
X020434Y008440D01*
X020398Y008405D01*
X020318Y008300D02*
X020248Y008300D01*
X020283Y008300D02*
X020283Y008510D01*
X020318Y008510D01*
X020760Y008440D02*
X020760Y008300D01*
X018108Y008335D02*
X017968Y008475D01*
X017968Y008335D01*
X018003Y008300D01*
X018073Y008300D01*
X018108Y008335D01*
X018108Y008475D01*
X018073Y008510D01*
X018003Y008510D01*
X017968Y008475D01*
X017887Y008405D02*
X017747Y008405D01*
X017666Y008405D02*
X017526Y008405D01*
X017526Y008510D02*
X017526Y008300D01*
X017445Y008300D02*
X017340Y008300D01*
X017305Y008335D01*
X017305Y008475D01*
X017340Y008510D01*
X017445Y008510D01*
X017445Y008300D01*
X017666Y008300D02*
X017666Y008510D01*
X017224Y008510D02*
X017084Y008510D01*
X017084Y008475D01*
X017224Y008335D01*
X017224Y008300D01*
X015165Y005152D02*
X015165Y003900D01*
X015105Y003915D02*
X015105Y003985D01*
X015105Y003950D02*
X014895Y003950D01*
X014895Y003915D02*
X014895Y003985D01*
X014930Y004062D02*
X014895Y004097D01*
X014895Y004167D01*
X014930Y004202D01*
X015070Y004202D01*
X015105Y004167D01*
X015105Y004097D01*
X015070Y004062D01*
X014930Y004062D01*
X014895Y004283D02*
X015105Y004283D01*
X015105Y004388D01*
X015070Y004423D01*
X015000Y004423D01*
X014965Y004388D01*
X014965Y004283D01*
X014965Y004353D02*
X014895Y004423D01*
X014930Y004504D02*
X014895Y004539D01*
X014895Y004609D01*
X014930Y004644D01*
X015070Y004644D01*
X015105Y004609D01*
X015105Y004539D01*
X015070Y004504D01*
X014930Y004504D01*
X014965Y004574D02*
X014895Y004644D01*
X014930Y004725D02*
X014895Y004760D01*
X014895Y004830D01*
X014930Y004865D01*
X015000Y004865D01*
X015000Y004795D01*
X015070Y004725D02*
X014930Y004725D01*
X015070Y004725D02*
X015105Y004760D01*
X015105Y004830D01*
X015070Y004865D01*
X015105Y004946D02*
X014895Y004946D01*
X014895Y005086D01*
X015000Y005016D02*
X015000Y004946D01*
X015105Y004946D02*
X015105Y005086D01*
X015895Y004462D02*
X015930Y004497D01*
X016070Y004497D01*
X016105Y004462D01*
X016105Y004357D01*
X015895Y004357D01*
X015895Y004462D01*
X015895Y004276D02*
X016105Y004276D01*
X016105Y004136D02*
X015895Y004276D01*
X015895Y004136D02*
X016105Y004136D01*
X016070Y004055D02*
X016105Y004020D01*
X016105Y003950D01*
X016070Y003915D01*
X015930Y003915D01*
X015895Y003950D01*
X015895Y004020D01*
X015930Y004055D01*
X016000Y004055D01*
X016000Y003985D01*
X014105Y003985D02*
X014035Y003915D01*
X013895Y003915D01*
X014000Y003915D02*
X014000Y004055D01*
X014035Y004055D02*
X013895Y004055D01*
X013930Y004136D02*
X013895Y004171D01*
X013895Y004241D01*
X013930Y004276D01*
X013965Y004276D01*
X014000Y004241D01*
X014000Y004206D01*
X014000Y004241D02*
X014035Y004276D01*
X014070Y004276D01*
X014105Y004241D01*
X014105Y004171D01*
X014070Y004136D01*
X014035Y004055D02*
X014105Y003985D01*
X013105Y003985D02*
X013035Y003915D01*
X012895Y003915D01*
X013000Y003915D02*
X013000Y004055D01*
X013035Y004055D02*
X012895Y004055D01*
X012895Y004136D02*
X013035Y004276D01*
X013070Y004276D01*
X013105Y004241D01*
X013105Y004171D01*
X013070Y004136D01*
X013035Y004055D02*
X013105Y003985D01*
X012895Y004136D02*
X012895Y004276D01*
X012105Y004206D02*
X011895Y004206D01*
X011895Y004136D02*
X011895Y004276D01*
X012035Y004136D02*
X012105Y004206D01*
X012035Y004055D02*
X011895Y004055D01*
X012000Y004055D02*
X012000Y003915D01*
X012035Y003915D02*
X012105Y003985D01*
X012035Y004055D01*
X012035Y003915D02*
X011895Y003915D01*
X011105Y003985D02*
X011035Y003915D01*
X010895Y003915D01*
X011000Y003915D02*
X011000Y004055D01*
X011035Y004055D02*
X010895Y004055D01*
X010930Y004136D02*
X011070Y004276D01*
X010930Y004276D01*
X010895Y004241D01*
X010895Y004171D01*
X010930Y004136D01*
X011070Y004136D01*
X011105Y004171D01*
X011105Y004241D01*
X011070Y004276D01*
X011035Y004055D02*
X011105Y003985D01*
X009105Y003950D02*
X009070Y003915D01*
X008930Y003915D01*
X008895Y003950D01*
X008895Y004020D01*
X008930Y004055D01*
X009000Y004055D01*
X009000Y003985D01*
X009070Y004055D02*
X009105Y004020D01*
X009105Y003950D01*
X009105Y004136D02*
X008895Y004276D01*
X009105Y004276D01*
X009105Y004357D02*
X009105Y004462D01*
X009070Y004497D01*
X008930Y004497D01*
X008895Y004462D01*
X008895Y004357D01*
X009105Y004357D01*
X009105Y004136D02*
X008895Y004136D01*
X008105Y004136D02*
X007895Y004276D01*
X008105Y004276D01*
X008105Y004357D02*
X008105Y004462D01*
X008070Y004497D01*
X007930Y004497D01*
X007895Y004462D01*
X007895Y004357D01*
X008105Y004357D01*
X008105Y004136D02*
X007895Y004136D01*
X007930Y004055D02*
X008000Y004055D01*
X008000Y003985D01*
X007930Y003915D02*
X007895Y003950D01*
X007895Y004020D01*
X007930Y004055D01*
X007930Y003915D02*
X008070Y003915D01*
X008105Y003950D01*
X008105Y004020D01*
X008070Y004055D01*
X006165Y003900D02*
X006165Y004563D01*
X006070Y004497D02*
X006105Y004462D01*
X006105Y004392D01*
X006070Y004357D01*
X006035Y004357D01*
X006000Y004392D01*
X006000Y004462D01*
X005965Y004497D01*
X005930Y004497D01*
X005895Y004462D01*
X005895Y004392D01*
X005930Y004357D01*
X005930Y004276D02*
X006070Y004276D01*
X006105Y004241D01*
X006105Y004171D01*
X006070Y004136D01*
X005930Y004136D01*
X005895Y004171D01*
X005895Y004241D01*
X005930Y004276D01*
X005930Y004055D02*
X006070Y004055D01*
X006105Y004020D01*
X006105Y003915D01*
X005895Y003915D01*
X005895Y004020D01*
X005930Y004055D01*
X005105Y004055D02*
X004965Y004055D01*
X004895Y003985D01*
X004965Y003915D01*
X005105Y003915D01*
X005070Y004136D02*
X004930Y004136D01*
X004895Y004171D01*
X004895Y004241D01*
X004930Y004276D01*
X004930Y004357D02*
X004895Y004392D01*
X004895Y004462D01*
X004930Y004497D01*
X004930Y004357D02*
X005070Y004357D01*
X005105Y004392D01*
X005105Y004462D01*
X005070Y004497D01*
X005070Y004276D02*
X005105Y004241D01*
X005105Y004171D01*
X005070Y004136D01*
X003206Y004125D02*
X003206Y003915D01*
X003101Y003915D01*
X003066Y003950D01*
X003066Y003985D01*
X003101Y004020D01*
X003206Y004020D01*
X003101Y004020D02*
X003066Y004055D01*
X003066Y004090D01*
X003101Y004125D01*
X003206Y004125D01*
X002985Y004055D02*
X002915Y004125D01*
X002915Y003915D01*
X002985Y003915D02*
X002845Y003915D01*
X021895Y003915D02*
X022105Y003915D01*
X022105Y004020D01*
X022070Y004055D01*
X022000Y004055D01*
X021965Y004020D01*
X021965Y003915D01*
X021965Y003985D02*
X021895Y004055D01*
X021895Y004136D02*
X021895Y004276D01*
X021930Y004357D02*
X021895Y004392D01*
X021895Y004462D01*
X021930Y004497D01*
X021965Y004497D01*
X022000Y004462D01*
X022000Y004392D01*
X022035Y004357D01*
X022070Y004357D01*
X022105Y004392D01*
X022105Y004462D01*
X022070Y004497D01*
X022165Y004563D02*
X022165Y003900D01*
X022105Y004136D02*
X021895Y004136D01*
X022000Y004136D02*
X022000Y004206D01*
X022105Y004276D02*
X022105Y004136D01*
X022895Y004136D02*
X022930Y004136D01*
X023070Y004276D01*
X023105Y004276D01*
X023105Y004136D01*
X023035Y004055D02*
X022895Y004055D01*
X023000Y004055D02*
X023000Y003915D01*
X023035Y003915D02*
X023105Y003985D01*
X023035Y004055D01*
X023035Y003915D02*
X022895Y003915D01*
X023895Y003915D02*
X024035Y003915D01*
X024105Y003985D01*
X024035Y004055D01*
X023895Y004055D01*
X023930Y004136D02*
X023895Y004171D01*
X023895Y004241D01*
X023930Y004276D01*
X023965Y004276D01*
X024000Y004241D01*
X024000Y004136D01*
X023930Y004136D01*
X024000Y004136D02*
X024070Y004206D01*
X024105Y004276D01*
X024000Y004055D02*
X024000Y003915D01*
X024895Y003915D02*
X025035Y003915D01*
X025105Y003985D01*
X025035Y004055D01*
X024895Y004055D01*
X024930Y004136D02*
X024895Y004171D01*
X024895Y004241D01*
X024930Y004276D01*
X025000Y004276D01*
X025035Y004241D01*
X025035Y004206D01*
X025000Y004136D01*
X025105Y004136D01*
X025105Y004276D01*
X025000Y004055D02*
X025000Y003915D01*
X025895Y003915D02*
X026035Y003915D01*
X026105Y003985D01*
X026035Y004055D01*
X025895Y004055D01*
X026000Y004055D02*
X026000Y003915D01*
X026000Y004136D02*
X026000Y004276D01*
X025895Y004241D02*
X026105Y004241D01*
X026000Y004136D01*
X030895Y004171D02*
X030895Y004241D01*
X030930Y004276D01*
X030930Y004357D02*
X030895Y004392D01*
X030895Y004462D01*
X030930Y004497D01*
X030930Y004357D02*
X031070Y004357D01*
X031105Y004392D01*
X031105Y004462D01*
X031070Y004497D01*
X031070Y004276D02*
X031105Y004241D01*
X031105Y004171D01*
X031070Y004136D01*
X030930Y004136D01*
X030895Y004171D01*
X030965Y004055D02*
X031105Y004055D01*
X030965Y004055D02*
X030895Y003985D01*
X030965Y003915D01*
X031105Y003915D01*
X031895Y003950D02*
X031930Y003915D01*
X032070Y003915D01*
X032105Y003950D01*
X032105Y004020D01*
X032070Y004055D01*
X032000Y004055D02*
X032000Y003985D01*
X032000Y004055D02*
X031930Y004055D01*
X031895Y004020D01*
X031895Y003950D01*
X031895Y004136D02*
X032105Y004136D01*
X031895Y004276D01*
X032105Y004276D01*
X032105Y004357D02*
X032105Y004462D01*
X032070Y004497D01*
X031930Y004497D01*
X031895Y004462D01*
X031895Y004357D01*
X032105Y004357D01*
X032804Y004125D02*
X032804Y003915D01*
X032734Y003915D02*
X032875Y003915D01*
X032955Y003950D02*
X032990Y003915D01*
X033060Y003915D01*
X033095Y003950D01*
X033176Y003950D02*
X033211Y003915D01*
X033316Y003915D01*
X033316Y004125D01*
X033211Y004125D01*
X033176Y004090D01*
X033176Y004055D01*
X033211Y004020D01*
X033316Y004020D01*
X033211Y004020D02*
X033176Y003985D01*
X033176Y003950D01*
X033095Y004090D02*
X033060Y004125D01*
X032990Y004125D01*
X032955Y004090D01*
X032955Y004055D01*
X032990Y004020D01*
X032955Y003985D01*
X032955Y003950D01*
X032990Y004020D02*
X033025Y004020D01*
X032875Y004055D02*
X032804Y004125D01*
M02*
