G75*
G70*
%OFA0B0*%
%FSLAX24Y24*%
%IPPOS*%
%LPD*%
%AMOC8*
5,1,8,0,0,1.08239X$1,22.5*
%
%ADD10R,0.0600X0.2550*%
%ADD11R,0.0433X0.0394*%
D10*
X003000Y002025D03*
X004000Y002025D03*
X005000Y002025D03*
X006000Y002025D03*
X007000Y002025D03*
X008000Y002025D03*
X009000Y002025D03*
X010000Y002025D03*
X011000Y002025D03*
X012000Y002025D03*
X013000Y002025D03*
X014000Y002025D03*
X015000Y002025D03*
X016000Y002025D03*
X017000Y002025D03*
X018000Y002025D03*
X019000Y002025D03*
X020000Y002025D03*
X021000Y002025D03*
X022000Y002025D03*
X023000Y002025D03*
X024000Y002025D03*
X025000Y002025D03*
X026000Y002025D03*
X027000Y002025D03*
X028000Y002025D03*
X029000Y002025D03*
X030000Y002025D03*
X031000Y002025D03*
X032000Y002025D03*
X033000Y002025D03*
D11*
X021625Y009690D03*
X021000Y009690D03*
X020375Y009690D03*
X019750Y009690D03*
X019125Y009690D03*
X018500Y009690D03*
X017875Y009690D03*
X017250Y009690D03*
X017250Y010360D03*
X017875Y010360D03*
X018500Y010360D03*
X019125Y010360D03*
X019750Y010360D03*
X020375Y010360D03*
X021000Y010360D03*
X021625Y010360D03*
M02*
