%
M48
M72
T01C0.0236
T02C0.0320
T03C0.0400
%
T01
X6000Y3775
X7750Y5150
X6250Y5650
X6250Y7150
X5750Y7150
X5250Y7150
X4750Y7150
X5125Y7650
X5625Y7900
X5875Y8400
X6375Y7900
X6875Y7900
X7750Y7150
X8250Y7150
X8750Y7150
X10000Y6525
X11125Y7775
X11875Y8400
X12250Y8025
X12750Y7525
X13250Y7275
X13750Y7525
X14250Y7275
X14750Y7150
X16250Y6900
X16125Y6400
X15625Y5775
X14750Y5025
X12875Y4775
X12250Y4900
X14375Y3775
X15375Y3775
X17625Y5525
X18125Y5525
X18625Y5525
X19750Y4650
X19500Y3775
X21375Y3775
X22500Y5025
X23000Y5525
X24000Y4900
X24500Y5150
X25000Y5400
X25875Y4900
X27250Y5025
X27250Y5650
X28625Y7025
X29375Y7025
X30000Y8025
X30500Y8025
X31000Y8025
X31000Y7525
X32000Y7025
X32250Y5400
X32750Y4400
X30500Y4275
X30000Y5525
X27250Y7525
X26375Y8400
X26875Y9150
X26000Y9650
X25500Y9650
X24375Y9400
X24750Y8900
X23875Y8400
X22750Y8025
X23125Y7400
X21875Y6400
X20500Y7150
X20000Y7150
X19500Y7150
X19000Y7150
X20500Y7650
X21000Y7525
X21000Y8650
X22500Y9650
X23250Y9400
X23750Y11150
X24250Y11150
X24875Y11275
X26375Y11150
X27125Y11400
X28000Y12275
X27125Y13025
X28750Y13525
X29250Y12025
X31000Y12025
X32125Y12025
X32750Y12650
X31500Y11025
X31000Y11025
X30500Y11025
X29250Y11025
X28000Y9525
X25250Y7400
X18250Y8900
X17625Y8150
X17125Y8150
X16750Y9650
X15500Y9650
X14750Y9650
X14125Y9275
X13750Y9650
X13000Y9400
X13125Y8775
X10125Y10150
X9750Y10775
X11125Y11525
X10625Y11775
X11750Y11150
X12375Y11150
X13750Y11150
X13375Y12025
X15500Y11150
X16500Y11275
X17250Y11150
X17750Y11150
X18250Y11150
X18750Y11150
X19250Y11150
X19750Y11150
X20250Y11150
X20750Y11150
X21250Y11150
X22000Y11400
X22000Y13400
X32250Y9525
X9250Y5150
X3250Y6650
X6250Y8900
X5500Y9275
X6250Y9650
X6750Y9650
X7250Y9650
X8750Y9650
X7750Y11150
X7250Y11400
X6250Y11150
X5750Y11150
X5250Y11150
X5250Y11650
X5125Y12150
X5625Y12400
X6125Y12650
X6625Y13275
X5375Y13275
X7750Y14400
X8250Y11650
X3250Y10650
T02
X3125Y5150
X4125Y5150
T03
X8500Y13900
X9500Y13900
X10500Y13900
X11500Y13900
X12500Y13900
X13500Y13900
X14500Y13900
X15500Y13900
X16500Y13900
X17500Y13900
X18500Y13900
X19500Y13900
X20500Y13900
X21500Y13900
X22500Y13900
X23500Y13900
X24500Y13900
X25500Y13900
X26500Y13900
X27500Y13900
X29000Y14400
X30000Y14400
X31000Y14400
X32250Y13900
X32250Y14900
X27500Y14900
X26500Y14900
X25500Y14900
X24500Y14900
X23500Y14900
X22500Y14900
X21500Y14900
X20500Y14900
X19500Y14900
X18500Y14900
X17500Y14900
X16500Y14900
X15500Y14900
X14500Y14900
X13500Y14900
X12500Y14900
X11500Y14900
X10500Y14900
X9500Y14900
X8500Y14900
X7000Y14400
X6000Y14400
X4500Y14400
X3500Y14400
M30
