G75*
G70*
%OFA0B0*%
%FSLAX24Y24*%
%IPPOS*%
%LPD*%
%AMOC8*
5,1,8,0,0,1.08239X$1,22.5*
%
%ADD10R,0.0260X0.0800*%
%ADD11R,0.0600X0.2550*%
%ADD12R,0.0591X0.0512*%
D10*
X004750Y006420D03*
X005250Y006420D03*
X005750Y006420D03*
X006250Y006420D03*
X006750Y006420D03*
X007250Y006420D03*
X007750Y006420D03*
X008250Y006420D03*
X008750Y006420D03*
X009250Y006420D03*
X010750Y006420D03*
X011250Y006420D03*
X011750Y006420D03*
X012250Y006420D03*
X012750Y006420D03*
X013250Y006420D03*
X013750Y006420D03*
X014250Y006420D03*
X014750Y006420D03*
X015250Y006420D03*
X016750Y006420D03*
X017250Y006420D03*
X017750Y006420D03*
X018250Y006420D03*
X018750Y006420D03*
X019250Y006420D03*
X019750Y006420D03*
X020250Y006420D03*
X020750Y006420D03*
X021250Y006420D03*
X022750Y006420D03*
X023250Y006420D03*
X023750Y006420D03*
X024250Y006420D03*
X024750Y006420D03*
X025250Y006420D03*
X025750Y006420D03*
X026250Y006420D03*
X026750Y006420D03*
X027250Y006420D03*
X028750Y006315D03*
X029250Y006315D03*
X029750Y006315D03*
X030250Y006315D03*
X030750Y006315D03*
X031250Y006315D03*
X031750Y006315D03*
X032250Y006315D03*
X032250Y008735D03*
X031750Y008735D03*
X031250Y008735D03*
X030750Y008735D03*
X030250Y008735D03*
X029750Y008735D03*
X029250Y008735D03*
X028750Y008735D03*
X028750Y010315D03*
X029250Y010315D03*
X029750Y010315D03*
X030250Y010315D03*
X030750Y010315D03*
X031250Y010315D03*
X031750Y010315D03*
X032250Y010315D03*
X032250Y012735D03*
X031750Y012735D03*
X031250Y012735D03*
X030750Y012735D03*
X030250Y012735D03*
X029750Y012735D03*
X029250Y012735D03*
X028750Y012735D03*
X027250Y010380D03*
X026750Y010380D03*
X026250Y010380D03*
X025750Y010380D03*
X025250Y010380D03*
X024750Y010380D03*
X024250Y010380D03*
X023750Y010380D03*
X023250Y010380D03*
X022750Y010380D03*
X021250Y010380D03*
X020750Y010380D03*
X020250Y010380D03*
X019750Y010380D03*
X019250Y010380D03*
X018750Y010380D03*
X018250Y010380D03*
X017750Y010380D03*
X017250Y010380D03*
X016750Y010380D03*
X015250Y010380D03*
X014750Y010380D03*
X014250Y010380D03*
X013750Y010380D03*
X013250Y010380D03*
X012750Y010380D03*
X012250Y010380D03*
X011750Y010380D03*
X011250Y010380D03*
X010750Y010380D03*
X009250Y010380D03*
X008750Y010380D03*
X008250Y010380D03*
X007750Y010380D03*
X007250Y010380D03*
X006750Y010380D03*
X006250Y010380D03*
X005750Y010380D03*
X005250Y010380D03*
X004750Y010380D03*
D11*
X003000Y002025D03*
X004000Y002025D03*
X005000Y002025D03*
X006000Y002025D03*
X007000Y002025D03*
X008000Y002025D03*
X009000Y002025D03*
X010000Y002025D03*
X011000Y002025D03*
X012000Y002025D03*
X013000Y002025D03*
X014000Y002025D03*
X015000Y002025D03*
X016000Y002025D03*
X017000Y002025D03*
X018000Y002025D03*
X019000Y002025D03*
X020000Y002025D03*
X021000Y002025D03*
X022000Y002025D03*
X023000Y002025D03*
X024000Y002025D03*
X025000Y002025D03*
X026000Y002025D03*
X027000Y002025D03*
X028000Y002025D03*
X029000Y002025D03*
X030000Y002025D03*
X031000Y002025D03*
X032000Y002025D03*
X033000Y002025D03*
D12*
X028000Y007526D03*
X028000Y008274D03*
X028000Y010776D03*
X028000Y011524D03*
X026500Y012026D03*
X025500Y012026D03*
X024500Y012026D03*
X023500Y012026D03*
X022500Y012026D03*
X021500Y012026D03*
X020500Y012026D03*
X019500Y012026D03*
X019500Y012774D03*
X020500Y012774D03*
X021500Y012774D03*
X022500Y012774D03*
X023500Y012774D03*
X024500Y012774D03*
X025500Y012774D03*
X026500Y012774D03*
X022000Y008774D03*
X022000Y008026D03*
X016000Y008026D03*
X016000Y008774D03*
X010000Y008774D03*
X010000Y008026D03*
X004000Y008026D03*
X004000Y008774D03*
M02*
